<svg width="24" height="25" viewBox="0 0 24 25" fill="none" xmlns="http://www.w3.org/2000/svg">
<path d="M15.2725 18.1993L15.8194 21.7218C14.0397 22.8208 12.058 23.576 10.0284 23.8868C9.37902 23.9858 8.75199 24.0323 8.15435 24.0323C6.54739 24.0323 5.14425 23.6757 4.06353 22.9942L6.30767 18.1993H15.2725ZM0.765676 19.1046C-0.775602 15.6117 0.00906461 11.1547 3.15532 6.77159C4.82283 4.44697 7.16773 2.5472 9.74419 1.35069L0.765676 19.1046ZM16.7657 0.0352631C18.359 0.215729 19.7732 0.767305 20.8897 1.66612C25.1106 5.0702 25.0238 10.8012 20.6885 17.0685L16.7657 0.0352631ZM15.0616 14.1476H8.12505L12.9815 4.16905L15.0616 14.1476Z" fill="#CE0E2D"/>
</svg>
