<svg width="350" height="219" viewBox="0 0 350 219" fill="none" xmlns="http://www.w3.org/2000/svg">
<g filter="url(#filter0_d_7_17320)">
<path d="M181.016 45V28.2H193.808V31.56H184.712V35.136H192.728V38.496H184.712V45H181.016ZM196.934 45V28.2H200.63V45H196.934ZM208.741 45V31.608H203.629V28.2H217.549V31.608H212.437V45H208.741ZM220.391 45V28.2H224.375L228.791 35.304L233.207 28.2H237.191V45H233.519V34.032L228.791 41.208H228.695L224.015 34.104V45H220.391ZM241.395 45V28.2H245.091V45H241.395ZM249.289 45V28.2H252.697L260.569 38.544V28.2H264.217V45H261.073L252.937 34.32V45H249.289ZM276.338 45.288C273.73 45.288 271.602 44.48 269.954 42.864C268.322 41.232 267.506 39.16 267.506 36.648V36.6C267.506 34.184 268.346 32.136 270.026 30.456C271.706 28.76 273.802 27.912 276.314 27.912C277.754 27.912 278.986 28.104 280.01 28.488C281.034 28.856 282.002 29.432 282.914 30.216L280.586 33.024C279.898 32.448 279.218 32.024 278.546 31.752C277.89 31.464 277.106 31.32 276.194 31.32C274.85 31.32 273.706 31.832 272.762 32.856C271.834 33.88 271.37 35.112 271.37 36.552V36.6C271.37 38.136 271.842 39.408 272.786 40.416C273.746 41.424 274.97 41.928 276.458 41.928C277.834 41.928 278.994 41.592 279.938 40.92V38.52H276.218V35.328H283.514V42.624C281.418 44.4 279.026 45.288 276.338 45.288ZM301.615 42.768C299.919 44.448 297.791 45.288 295.231 45.288C292.671 45.288 290.543 44.456 288.847 42.792C287.167 41.112 286.327 39.064 286.327 36.648V36.6C286.327 34.184 287.175 32.136 288.871 30.456C290.583 28.76 292.719 27.912 295.279 27.912C297.839 27.912 299.959 28.752 301.639 30.432C303.335 32.096 304.183 34.136 304.183 36.552V36.6C304.183 39.016 303.327 41.072 301.615 42.768ZM291.631 40.344C292.591 41.368 293.807 41.88 295.279 41.88C296.751 41.88 297.959 41.376 298.903 40.368C299.847 39.36 300.319 38.12 300.319 36.648V36.6C300.319 35.128 299.839 33.88 298.879 32.856C297.919 31.832 296.703 31.32 295.231 31.32C293.759 31.32 292.551 31.824 291.607 32.832C290.663 33.84 290.191 35.08 290.191 36.552V36.6C290.191 38.072 290.671 39.32 291.631 40.344Z" fill="#DD3F11"/>
<path d="M180.12 72V60.48H184.776C184.888 60.48 185.027 60.4853 185.192 60.496C185.357 60.5013 185.515 60.5173 185.664 60.544C186.304 60.6453 186.837 60.864 187.264 61.2C187.696 61.536 188.019 61.96 188.232 62.472C188.445 62.984 188.552 63.5493 188.552 64.168C188.552 64.792 188.445 65.36 188.232 65.872C188.019 66.384 187.696 66.808 187.264 67.144C186.837 67.48 186.304 67.6987 185.664 67.8C185.515 67.8213 185.355 67.8373 185.184 67.848C185.019 67.8587 184.883 67.864 184.776 67.864H181.792V72H180.12ZM181.792 66.28H184.712C184.819 66.28 184.936 66.2747 185.064 66.264C185.197 66.2533 185.323 66.2347 185.44 66.208C185.781 66.128 186.056 65.9813 186.264 65.768C186.472 65.5493 186.621 65.2987 186.712 65.016C186.803 64.7333 186.848 64.4507 186.848 64.168C186.848 63.8853 186.803 63.6053 186.712 63.328C186.621 63.0453 186.472 62.7973 186.264 62.584C186.056 62.3653 185.781 62.216 185.44 62.136C185.323 62.104 185.197 62.0827 185.064 62.072C184.936 62.0613 184.819 62.056 184.712 62.056H181.792V66.28ZM190.151 72V63.36H191.639V65.456L191.431 65.184C191.538 64.9067 191.677 64.6533 191.847 64.424C192.018 64.1893 192.215 63.9973 192.439 63.848C192.658 63.688 192.901 63.5653 193.167 63.48C193.439 63.3893 193.717 63.336 193.999 63.32C194.282 63.2987 194.554 63.312 194.815 63.36V64.928C194.533 64.8533 194.218 64.832 193.871 64.864C193.53 64.896 193.215 65.0053 192.927 65.192C192.655 65.368 192.439 65.5813 192.279 65.832C192.125 66.0827 192.013 66.3627 191.943 66.672C191.874 66.976 191.839 67.2987 191.839 67.64V72H190.151ZM199.935 72.24C199.071 72.24 198.321 72.0453 197.687 71.656C197.052 71.2667 196.561 70.7307 196.215 70.048C195.873 69.36 195.703 68.568 195.703 67.672C195.703 66.7707 195.879 65.9787 196.231 65.296C196.583 64.608 197.076 64.0747 197.711 63.696C198.345 63.312 199.087 63.12 199.935 63.12C200.799 63.12 201.548 63.3147 202.183 63.704C202.817 64.0933 203.308 64.6293 203.655 65.312C204.001 65.9947 204.175 66.7813 204.175 67.672C204.175 68.5733 203.999 69.368 203.647 70.056C203.3 70.7387 202.809 71.2747 202.175 71.664C201.54 72.048 200.793 72.24 199.935 72.24ZM199.935 70.664C200.761 70.664 201.377 70.3867 201.783 69.832C202.193 69.272 202.399 68.552 202.399 67.672C202.399 66.7707 202.191 66.0507 201.775 65.512C201.364 64.968 200.751 64.696 199.935 64.696C199.375 64.696 198.913 64.824 198.551 65.08C198.188 65.3307 197.919 65.68 197.743 66.128C197.567 66.5707 197.479 67.0853 197.479 67.672C197.479 68.5787 197.687 69.304 198.103 69.848C198.519 70.392 199.129 70.664 199.935 70.664ZM210.877 72C210.333 72.1067 209.799 72.152 209.277 72.136C208.754 72.12 208.287 72.0187 207.877 71.832C207.466 71.6453 207.157 71.352 206.949 70.952C206.762 70.5947 206.661 70.232 206.645 69.864C206.634 69.4907 206.629 69.0693 206.629 68.6V60.96H208.309V68.52C208.309 68.8667 208.311 69.168 208.317 69.424C208.327 69.68 208.383 69.896 208.485 70.072C208.677 70.4027 208.981 70.592 209.397 70.64C209.818 70.6827 210.311 70.664 210.877 70.584V72ZM204.973 64.704V63.36H210.877V64.704H204.973ZM216.14 72.24C215.281 72.24 214.526 72.0533 213.876 71.68C213.23 71.3013 212.726 70.776 212.363 70.104C212.006 69.4267 211.828 68.6427 211.828 67.752C211.828 66.808 212.004 65.9893 212.356 65.296C212.713 64.6027 213.209 64.0667 213.844 63.688C214.478 63.3093 215.217 63.12 216.06 63.12C216.94 63.12 217.689 63.3253 218.308 63.736C218.926 64.1413 219.388 64.72 219.692 65.472C220.001 66.224 220.124 67.1173 220.06 68.152H218.388V67.544C218.377 66.5413 218.185 65.8 217.812 65.32C217.444 64.84 216.881 64.6 216.124 64.6C215.286 64.6 214.657 64.864 214.236 65.392C213.814 65.92 213.604 66.6827 213.604 67.68C213.604 68.6293 213.814 69.3653 214.236 69.888C214.657 70.4053 215.265 70.664 216.06 70.664C216.582 70.664 217.033 70.5467 217.412 70.312C217.796 70.072 218.094 69.7307 218.308 69.288L219.948 69.808C219.612 70.5813 219.102 71.1813 218.42 71.608C217.737 72.0293 216.977 72.24 216.14 72.24ZM213.06 68.152V66.848H219.227V68.152H213.06ZM223.534 62.08H222.222L223.366 59.28H224.678L223.534 62.08ZM222.014 72V63.36H223.686V72H222.014ZM232.153 72V67.752C232.153 67.416 232.123 67.072 232.065 66.72C232.011 66.3627 231.905 66.032 231.745 65.728C231.59 65.424 231.369 65.1787 231.081 64.992C230.798 64.8053 230.427 64.712 229.969 64.712C229.67 64.712 229.387 64.7627 229.121 64.864C228.854 64.96 228.619 65.1173 228.417 65.336C228.219 65.5547 228.062 65.8427 227.945 66.2C227.833 66.5573 227.777 66.992 227.777 67.504L226.737 67.112C226.737 66.328 226.883 65.6373 227.177 65.04C227.47 64.4373 227.891 63.968 228.441 63.632C228.99 63.296 229.654 63.128 230.433 63.128C231.03 63.128 231.531 63.224 231.937 63.416C232.342 63.608 232.67 63.8613 232.921 64.176C233.177 64.4853 233.371 64.824 233.505 65.192C233.638 65.56 233.729 65.92 233.777 66.272C233.825 66.624 233.849 66.9333 233.849 67.2V72H232.153ZM226.081 72V63.36H227.577V65.856H227.777V72H226.081ZM238.373 72.24C237.733 72.24 237.197 72.1227 236.765 71.888C236.333 71.648 236.005 71.3333 235.781 70.944C235.562 70.5493 235.453 70.1173 235.453 69.648C235.453 69.2107 235.53 68.8267 235.685 68.496C235.839 68.1653 236.069 67.8853 236.373 67.656C236.677 67.4213 237.05 67.232 237.493 67.088C237.877 66.976 238.311 66.8773 238.797 66.792C239.282 66.7067 239.791 66.6267 240.325 66.552C240.863 66.4773 241.397 66.4027 241.925 66.328L241.317 66.664C241.327 65.9867 241.183 65.4853 240.885 65.16C240.591 64.8293 240.085 64.664 239.365 64.664C238.911 64.664 238.495 64.7707 238.117 64.984C237.738 65.192 237.474 65.5387 237.325 66.024L235.765 65.544C235.978 64.8027 236.383 64.2133 236.981 63.776C237.583 63.3387 238.383 63.12 239.381 63.12C240.154 63.12 240.826 63.2533 241.397 63.52C241.973 63.7813 242.394 64.1973 242.661 64.768C242.799 65.0507 242.885 65.3493 242.917 65.664C242.949 65.9787 242.965 66.3173 242.965 66.68V72H241.485V70.024L241.773 70.28C241.415 70.9413 240.959 71.4347 240.405 71.76C239.855 72.08 239.178 72.24 238.373 72.24ZM238.669 70.872C239.143 70.872 239.551 70.7893 239.893 70.624C240.234 70.4533 240.509 70.2373 240.717 69.976C240.925 69.7147 241.061 69.4427 241.125 69.16C241.215 68.904 241.266 68.616 241.277 68.296C241.293 67.976 241.301 67.72 241.301 67.528L241.845 67.728C241.317 67.808 240.837 67.88 240.405 67.944C239.973 68.008 239.581 68.072 239.229 68.136C238.882 68.1947 238.573 68.2667 238.301 68.352C238.071 68.432 237.866 68.528 237.685 68.64C237.509 68.752 237.367 68.888 237.261 69.048C237.159 69.208 237.109 69.4027 237.109 69.632C237.109 69.856 237.165 70.064 237.277 70.256C237.389 70.4427 237.559 70.592 237.789 70.704C238.018 70.816 238.311 70.872 238.669 70.872ZM250.949 72L247.205 60.48H248.941L252.133 70.312L255.365 60.48H257.101L253.357 72H250.949ZM261.186 72.24C260.328 72.24 259.573 72.0533 258.922 71.68C258.277 71.3013 257.773 70.776 257.41 70.104C257.053 69.4267 256.874 68.6427 256.874 67.752C256.874 66.808 257.05 65.9893 257.402 65.296C257.76 64.6027 258.256 64.0667 258.89 63.688C259.525 63.3093 260.264 63.12 261.106 63.12C261.986 63.12 262.736 63.3253 263.354 63.736C263.973 64.1413 264.434 64.72 264.738 65.472C265.048 66.224 265.17 67.1173 265.106 68.152H263.434V67.544C263.424 66.5413 263.232 65.8 262.858 65.32C262.49 64.84 261.928 64.6 261.17 64.6C260.333 64.6 259.704 64.864 259.282 65.392C258.861 65.92 258.65 66.6827 258.65 67.68C258.65 68.6293 258.861 69.3653 259.282 69.888C259.704 70.4053 260.312 70.664 261.106 70.664C261.629 70.664 262.08 70.5467 262.458 70.312C262.842 70.072 263.141 69.7307 263.354 69.288L264.994 69.808C264.658 70.5813 264.149 71.1813 263.466 71.608C262.784 72.0293 262.024 72.24 261.186 72.24ZM258.106 68.152V66.848H264.274V68.152H258.106ZM270.461 76.08C269.997 76.08 269.547 76.008 269.109 75.864C268.677 75.72 268.283 75.5067 267.925 75.224C267.568 74.9467 267.272 74.6027 267.037 74.192L268.581 73.408C268.768 73.776 269.035 74.0453 269.381 74.216C269.728 74.3867 270.093 74.472 270.477 74.472C270.952 74.472 271.357 74.3867 271.693 74.216C272.029 74.0507 272.283 73.8 272.453 73.464C272.629 73.128 272.715 72.712 272.709 72.216V69.8H272.909V63.36H274.389V72.232C274.389 72.4613 274.381 72.68 274.365 72.888C274.349 73.096 274.32 73.304 274.277 73.512C274.155 74.0933 273.92 74.5733 273.573 74.952C273.232 75.3307 272.795 75.6133 272.261 75.8C271.733 75.9867 271.133 76.08 270.461 76.08ZM270.333 72.24C269.528 72.24 268.832 72.04 268.245 71.64C267.664 71.24 267.213 70.696 266.893 70.008C266.579 69.3147 266.421 68.536 266.421 67.672C266.421 66.8027 266.581 66.0267 266.901 65.344C267.221 64.656 267.675 64.1147 268.261 63.72C268.853 63.32 269.555 63.12 270.365 63.12C271.181 63.12 271.867 63.32 272.421 63.72C272.981 64.1147 273.403 64.656 273.685 65.344C273.973 66.032 274.117 66.808 274.117 67.672C274.117 68.536 273.973 69.312 273.685 70C273.397 70.688 272.973 71.2347 272.413 71.64C271.853 72.04 271.16 72.24 270.333 72.24ZM270.565 70.728C271.115 70.728 271.563 70.5973 271.909 70.336C272.256 70.0747 272.509 69.7147 272.669 69.256C272.829 68.7973 272.909 68.2693 272.909 67.672C272.909 67.0747 272.827 66.5467 272.661 66.088C272.501 65.6293 272.251 65.272 271.909 65.016C271.573 64.76 271.144 64.632 270.621 64.632C270.067 64.632 269.611 64.768 269.253 65.04C268.896 65.312 268.629 65.6773 268.453 66.136C268.283 66.5947 268.197 67.1067 268.197 67.672C268.197 68.2427 268.283 68.76 268.453 69.224C268.629 69.6827 268.891 70.048 269.237 70.32C269.589 70.592 270.032 70.728 270.565 70.728ZM280.468 72.24C279.609 72.24 278.854 72.0533 278.204 71.68C277.558 71.3013 277.054 70.776 276.692 70.104C276.334 69.4267 276.156 68.6427 276.156 67.752C276.156 66.808 276.332 65.9893 276.684 65.296C277.041 64.6027 277.537 64.0667 278.172 63.688C278.806 63.3093 279.545 63.12 280.388 63.12C281.268 63.12 282.017 63.3253 282.636 63.736C283.254 64.1413 283.716 64.72 284.02 65.472C284.329 66.224 284.452 67.1173 284.388 68.152H282.716V67.544C282.705 66.5413 282.513 65.8 282.14 65.32C281.772 64.84 281.209 64.6 280.452 64.6C279.614 64.6 278.985 64.864 278.564 65.392C278.142 65.92 277.932 66.6827 277.932 67.68C277.932 68.6293 278.142 69.3653 278.564 69.888C278.985 70.4053 279.593 70.664 280.388 70.664C280.91 70.664 281.361 70.5467 281.74 70.312C282.124 70.072 282.422 69.7307 282.636 69.288L284.276 69.808C283.94 70.5813 283.43 71.1813 282.748 71.608C282.065 72.0293 281.305 72.24 280.468 72.24ZM277.388 68.152V66.848H283.556V68.152H277.388ZM291.127 72C290.583 72.1067 290.049 72.152 289.527 72.136C289.004 72.12 288.537 72.0187 288.127 71.832C287.716 71.6453 287.407 71.352 287.199 70.952C287.012 70.5947 286.911 70.232 286.895 69.864C286.884 69.4907 286.879 69.0693 286.879 68.6V60.96H288.559V68.52C288.559 68.8667 288.561 69.168 288.567 69.424C288.577 69.68 288.633 69.896 288.735 70.072C288.927 70.4027 289.231 70.592 289.647 70.64C290.068 70.6827 290.561 70.664 291.127 70.584V72ZM285.223 64.704V63.36H291.127V64.704H285.223ZM295.388 72.24C294.748 72.24 294.212 72.1227 293.78 71.888C293.348 71.648 293.02 71.3333 292.796 70.944C292.577 70.5493 292.468 70.1173 292.468 69.648C292.468 69.2107 292.545 68.8267 292.7 68.496C292.855 68.1653 293.084 67.8853 293.388 67.656C293.692 67.4213 294.065 67.232 294.508 67.088C294.892 66.976 295.327 66.8773 295.812 66.792C296.297 66.7067 296.807 66.6267 297.34 66.552C297.879 66.4773 298.412 66.4027 298.94 66.328L298.332 66.664C298.343 65.9867 298.199 65.4853 297.9 65.16C297.607 64.8293 297.1 64.664 296.38 64.664C295.927 64.664 295.511 64.7707 295.132 64.984C294.753 65.192 294.489 65.5387 294.34 66.024L292.78 65.544C292.993 64.8027 293.399 64.2133 293.996 63.776C294.599 63.3387 295.399 63.12 296.396 63.12C297.169 63.12 297.841 63.2533 298.412 63.52C298.988 63.7813 299.409 64.1973 299.676 64.768C299.815 65.0507 299.9 65.3493 299.932 65.664C299.964 65.9787 299.98 66.3173 299.98 66.68V72H298.5V70.024L298.788 70.28C298.431 70.9413 297.975 71.4347 297.42 71.76C296.871 72.08 296.193 72.24 295.388 72.24ZM295.684 70.872C296.159 70.872 296.567 70.7893 296.908 70.624C297.249 70.4533 297.524 70.2373 297.732 69.976C297.94 69.7147 298.076 69.4427 298.14 69.16C298.231 68.904 298.281 68.616 298.292 68.296C298.308 67.976 298.316 67.72 298.316 67.528L298.86 67.728C298.332 67.808 297.852 67.88 297.42 67.944C296.988 68.008 296.596 68.072 296.244 68.136C295.897 68.1947 295.588 68.2667 295.316 68.352C295.087 68.432 294.881 68.528 294.7 68.64C294.524 68.752 294.383 68.888 294.276 69.048C294.175 69.208 294.124 69.4027 294.124 69.632C294.124 69.856 294.18 70.064 294.292 70.256C294.404 70.4427 294.575 70.592 294.804 70.704C295.033 70.816 295.327 70.872 295.684 70.872ZM302.218 72V60.24H303.89V72H302.218Z" fill="#AC4B30"/>
<path d="M182.577 101V92.103H179.14V90.92H187.26V92.103H183.823V101H182.577ZM190.547 101.196C190.062 101.196 189.644 101.119 189.294 100.965C188.949 100.811 188.662 100.606 188.433 100.349C188.205 100.092 188.025 99.8077 187.894 99.495C187.764 99.1823 187.67 98.8627 187.614 98.536C187.563 98.2093 187.537 97.9037 187.537 97.619V93.44H188.797V97.227C188.797 97.5817 188.83 97.9247 188.895 98.256C188.961 98.5873 189.07 98.886 189.224 99.152C189.383 99.418 189.593 99.628 189.854 99.782C190.12 99.936 190.452 100.013 190.848 100.013C191.161 100.013 191.446 99.9593 191.702 99.852C191.959 99.7447 192.178 99.586 192.36 99.376C192.542 99.1613 192.682 98.8907 192.78 98.564C192.878 98.2373 192.927 97.857 192.927 97.423L193.746 97.675C193.746 98.403 193.613 99.0307 193.347 99.558C193.086 100.085 192.715 100.491 192.234 100.776C191.758 101.056 191.196 101.196 190.547 101.196ZM193.067 101V98.977H192.927V93.44H194.18V101H193.067ZM201.092 101.21C200.527 101.21 200.054 101.107 199.671 100.902C199.293 100.692 199.006 100.417 198.81 100.076C198.619 99.7353 198.523 99.362 198.523 98.956C198.523 98.5593 198.598 98.2163 198.747 97.927C198.901 97.633 199.116 97.3903 199.391 97.199C199.666 97.003 199.995 96.849 200.378 96.737C200.737 96.639 201.139 96.555 201.582 96.485C202.03 96.4103 202.483 96.3427 202.94 96.282C203.397 96.2213 203.824 96.163 204.221 96.107L203.773 96.366C203.787 95.694 203.652 95.197 203.367 94.875C203.087 94.553 202.602 94.392 201.911 94.392C201.454 94.392 201.052 94.497 200.707 94.707C200.366 94.9123 200.126 95.2483 199.986 95.715L198.803 95.358C198.985 94.6953 199.337 94.175 199.86 93.797C200.383 93.419 201.071 93.23 201.925 93.23C202.611 93.23 203.199 93.3537 203.689 93.601C204.184 93.8437 204.538 94.2123 204.753 94.707C204.86 94.9403 204.928 95.1947 204.956 95.47C204.984 95.7407 204.998 96.0253 204.998 96.324V101H203.892V99.187L204.151 99.355C203.866 99.9663 203.467 100.428 202.954 100.741C202.445 101.054 201.825 101.21 201.092 101.21ZM201.281 100.167C201.729 100.167 202.116 100.088 202.443 99.929C202.774 99.7657 203.04 99.5533 203.241 99.292C203.442 99.026 203.572 98.7367 203.633 98.424C203.703 98.1907 203.74 97.9317 203.745 97.647C203.754 97.3577 203.759 97.136 203.759 96.982L204.193 97.171C203.787 97.227 203.388 97.2807 202.996 97.332C202.604 97.3833 202.233 97.4393 201.883 97.5C201.533 97.556 201.218 97.6237 200.938 97.703C200.733 97.7683 200.539 97.8523 200.357 97.955C200.18 98.0577 200.035 98.1907 199.923 98.354C199.816 98.5127 199.762 98.711 199.762 98.949C199.762 99.1543 199.813 99.3503 199.916 99.537C200.023 99.7237 200.187 99.8753 200.406 99.992C200.63 100.109 200.922 100.167 201.281 100.167ZM206.958 101V90.71H208.204V101H206.958ZM210.444 92.103V90.815H211.69V92.103H210.444ZM210.444 101V93.44H211.69V101H210.444ZM215.94 101.21C215.375 101.21 214.901 101.107 214.519 100.902C214.141 100.692 213.854 100.417 213.658 100.076C213.466 99.7353 213.371 99.362 213.371 98.956C213.371 98.5593 213.445 98.2163 213.595 97.927C213.749 97.633 213.963 97.3903 214.239 97.199C214.514 97.003 214.843 96.849 215.226 96.737C215.585 96.639 215.986 96.555 216.43 96.485C216.878 96.4103 217.33 96.3427 217.788 96.282C218.245 96.2213 218.672 96.163 219.069 96.107L218.621 96.366C218.635 95.694 218.499 95.197 218.215 94.875C217.935 94.553 217.449 94.392 216.759 94.392C216.301 94.392 215.9 94.497 215.555 94.707C215.214 94.9123 214.974 95.2483 214.834 95.715L213.651 95.358C213.833 94.6953 214.185 94.175 214.708 93.797C215.23 93.419 215.919 93.23 216.773 93.23C217.459 93.23 218.047 93.3537 218.537 93.601C219.031 93.8437 219.386 94.2123 219.601 94.707C219.708 94.9403 219.776 95.1947 219.804 95.47C219.832 95.7407 219.846 96.0253 219.846 96.324V101H218.74V99.187L218.999 99.355C218.714 99.9663 218.315 100.428 217.802 100.741C217.293 101.054 216.672 101.21 215.94 101.21ZM216.129 100.167C216.577 100.167 216.964 100.088 217.291 99.929C217.622 99.7657 217.888 99.5533 218.089 99.292C218.289 99.026 218.42 98.7367 218.481 98.424C218.551 98.1907 218.588 97.9317 218.593 97.647C218.602 97.3577 218.607 97.136 218.607 96.982L219.041 97.171C218.635 97.227 218.236 97.2807 217.844 97.332C217.452 97.3833 217.081 97.4393 216.731 97.5C216.381 97.556 216.066 97.6237 215.786 97.703C215.58 97.7683 215.387 97.8523 215.205 97.955C215.027 98.0577 214.883 98.1907 214.771 98.354C214.663 98.5127 214.61 98.711 214.61 98.949C214.61 99.1543 214.661 99.3503 214.764 99.537C214.871 99.7237 215.034 99.8753 215.254 99.992C215.478 100.109 215.769 100.167 216.129 100.167ZM224.634 101.21C223.929 101.21 223.325 101.035 222.821 100.685C222.317 100.33 221.927 99.852 221.652 99.25C221.381 98.648 221.246 97.969 221.246 97.213C221.246 96.457 221.381 95.778 221.652 95.176C221.927 94.574 222.317 94.1003 222.821 93.755C223.325 93.405 223.927 93.23 224.627 93.23C225.341 93.23 225.94 93.4027 226.426 93.748C226.911 94.0933 227.277 94.567 227.525 95.169C227.777 95.771 227.903 96.4523 227.903 97.213C227.903 97.9643 227.777 98.6433 227.525 99.25C227.277 99.852 226.911 100.33 226.426 100.685C225.94 101.035 225.343 101.21 224.634 101.21ZM224.788 100.069C225.296 100.069 225.714 99.9477 226.041 99.705C226.367 99.4577 226.608 99.1193 226.762 98.69C226.92 98.256 227 97.7637 227 97.213C227 96.653 226.92 96.1607 226.762 95.736C226.608 95.3067 226.37 94.973 226.048 94.735C225.726 94.4923 225.317 94.371 224.823 94.371C224.309 94.371 223.885 94.497 223.549 94.749C223.217 95.001 222.97 95.3417 222.807 95.771C222.648 96.2003 222.569 96.681 222.569 97.213C222.569 97.7497 222.65 98.235 222.814 98.669C222.977 99.0983 223.222 99.439 223.549 99.691C223.88 99.943 224.293 100.069 224.788 100.069ZM227 101V95.435H226.86V90.92H228.113V101H227ZM233.294 101.21C232.542 101.21 231.894 101.04 231.348 100.699C230.806 100.358 230.389 99.887 230.095 99.285C229.801 98.683 229.654 97.9923 229.654 97.213C229.654 96.4197 229.803 95.7243 230.102 95.127C230.4 94.5297 230.823 94.0653 231.369 93.734C231.915 93.398 232.556 93.23 233.294 93.23C234.05 93.23 234.701 93.4003 235.247 93.741C235.793 94.077 236.21 94.546 236.5 95.148C236.794 95.7453 236.941 96.4337 236.941 97.213C236.941 98.0017 236.794 98.697 236.5 99.299C236.206 99.8963 235.786 100.365 235.24 100.706C234.694 101.042 234.045 101.21 233.294 101.21ZM233.294 100.027C234.078 100.027 234.661 99.7657 235.044 99.243C235.426 98.7203 235.618 98.0437 235.618 97.213C235.618 96.359 235.424 95.68 235.037 95.176C234.649 94.6673 234.068 94.413 233.294 94.413C232.766 94.413 232.332 94.532 231.992 94.77C231.651 95.008 231.397 95.337 231.229 95.757C231.061 96.177 230.977 96.6623 230.977 97.213C230.977 98.0623 231.173 98.7437 231.565 99.257C231.957 99.7703 232.533 100.027 233.294 100.027ZM244.757 101.21C244.047 101.21 243.45 101.035 242.965 100.685C242.479 100.33 242.111 99.852 241.859 99.25C241.611 98.6433 241.488 97.9643 241.488 97.213C241.488 96.4523 241.611 95.771 241.859 95.169C242.111 94.567 242.479 94.0933 242.965 93.748C243.455 93.4027 244.054 93.23 244.764 93.23C245.464 93.23 246.066 93.405 246.57 93.755C247.078 94.1003 247.468 94.574 247.739 95.176C248.009 95.778 248.145 96.457 248.145 97.213C248.145 97.969 248.009 98.648 247.739 99.25C247.468 99.852 247.078 100.33 246.57 100.685C246.066 101.035 245.461 101.21 244.757 101.21ZM241.278 104.36V93.44H242.391V99.005H242.531V104.36H241.278ZM244.603 100.069C245.102 100.069 245.515 99.943 245.842 99.691C246.168 99.439 246.413 99.0983 246.577 98.669C246.74 98.235 246.822 97.7497 246.822 97.213C246.822 96.681 246.74 96.2003 246.577 95.771C246.418 95.3417 246.171 95.001 245.835 94.749C245.503 94.497 245.081 94.371 244.568 94.371C244.078 94.371 243.672 94.4923 243.35 94.735C243.028 94.973 242.787 95.3067 242.629 95.736C242.47 96.1607 242.391 96.653 242.391 97.213C242.391 97.7637 242.468 98.256 242.622 98.69C242.78 99.1193 243.023 99.4577 243.35 99.705C243.676 99.9477 244.094 100.069 244.603 100.069ZM251.828 101.21C251.264 101.21 250.79 101.107 250.407 100.902C250.029 100.692 249.742 100.417 249.546 100.076C249.355 99.7353 249.259 99.362 249.259 98.956C249.259 98.5593 249.334 98.2163 249.483 97.927C249.637 97.633 249.852 97.3903 250.127 97.199C250.403 97.003 250.732 96.849 251.114 96.737C251.474 96.639 251.875 96.555 252.318 96.485C252.766 96.4103 253.219 96.3427 253.676 96.282C254.134 96.2213 254.561 96.163 254.957 96.107L254.509 96.366C254.523 95.694 254.388 95.197 254.103 94.875C253.823 94.553 253.338 94.392 252.647 94.392C252.19 94.392 251.789 94.497 251.443 94.707C251.103 94.9123 250.862 95.2483 250.722 95.715L249.539 95.358C249.721 94.6953 250.074 94.175 250.596 93.797C251.119 93.419 251.807 93.23 252.661 93.23C253.347 93.23 253.935 93.3537 254.425 93.601C254.92 93.8437 255.275 94.2123 255.489 94.707C255.597 94.9403 255.664 95.1947 255.692 95.47C255.72 95.7407 255.734 96.0253 255.734 96.324V101H254.628V99.187L254.887 99.355C254.603 99.9663 254.204 100.428 253.69 100.741C253.182 101.054 252.561 101.21 251.828 101.21ZM252.017 100.167C252.465 100.167 252.853 100.088 253.179 99.929C253.511 99.7657 253.777 99.5533 253.977 99.292C254.178 99.026 254.309 98.7367 254.369 98.424C254.439 98.1907 254.477 97.9317 254.481 97.647C254.491 97.3577 254.495 97.136 254.495 96.982L254.929 97.171C254.523 97.227 254.124 97.2807 253.732 97.332C253.34 97.3833 252.969 97.4393 252.619 97.5C252.269 97.556 251.954 97.6237 251.674 97.703C251.469 97.7683 251.275 97.8523 251.093 97.955C250.916 98.0577 250.771 98.1907 250.659 98.354C250.552 98.5127 250.498 98.711 250.498 98.949C250.498 99.1543 250.55 99.3503 250.652 99.537C250.76 99.7237 250.923 99.8753 251.142 99.992C251.366 100.109 251.658 100.167 252.017 100.167ZM257.554 101V93.44H258.667V95.267L258.485 95.029C258.574 94.7957 258.688 94.581 258.828 94.385C258.973 94.189 259.134 94.028 259.311 93.902C259.507 93.7433 259.729 93.622 259.976 93.538C260.224 93.454 260.476 93.405 260.732 93.391C260.989 93.3723 261.229 93.3887 261.453 93.44V94.609C261.192 94.539 260.905 94.5203 260.592 94.553C260.28 94.5857 259.99 94.7 259.724 94.896C259.482 95.0687 259.293 95.2787 259.157 95.526C259.027 95.7733 258.936 96.0417 258.884 96.331C258.833 96.6157 258.807 96.9073 258.807 97.206V101H257.554ZM264.68 101.21C264.115 101.21 263.641 101.107 263.259 100.902C262.881 100.692 262.594 100.417 262.398 100.076C262.206 99.7353 262.111 99.362 262.111 98.956C262.111 98.5593 262.185 98.2163 262.335 97.927C262.489 97.633 262.703 97.3903 262.979 97.199C263.254 97.003 263.583 96.849 263.966 96.737C264.325 96.639 264.726 96.555 265.17 96.485C265.618 96.4103 266.07 96.3427 266.528 96.282C266.985 96.2213 267.412 96.163 267.809 96.107L267.361 96.366C267.375 95.694 267.239 95.197 266.955 94.875C266.675 94.553 266.189 94.392 265.499 94.392C265.041 94.392 264.64 94.497 264.295 94.707C263.954 94.9123 263.714 95.2483 263.574 95.715L262.391 95.358C262.573 94.6953 262.925 94.175 263.448 93.797C263.97 93.419 264.659 93.23 265.513 93.23C266.199 93.23 266.787 93.3537 267.277 93.601C267.771 93.8437 268.126 94.2123 268.341 94.707C268.448 94.9403 268.516 95.1947 268.544 95.47C268.572 95.7407 268.586 96.0253 268.586 96.324V101H267.48V99.187L267.739 99.355C267.454 99.9663 267.055 100.428 266.542 100.741C266.033 101.054 265.412 101.21 264.68 101.21ZM264.869 100.167C265.317 100.167 265.704 100.088 266.031 99.929C266.362 99.7657 266.628 99.5533 266.829 99.292C267.029 99.026 267.16 98.7367 267.221 98.424C267.291 98.1907 267.328 97.9317 267.333 97.647C267.342 97.3577 267.347 97.136 267.347 96.982L267.781 97.171C267.375 97.227 266.976 97.2807 266.584 97.332C266.192 97.3833 265.821 97.4393 265.471 97.5C265.121 97.556 264.806 97.6237 264.526 97.703C264.32 97.7683 264.127 97.8523 263.945 97.955C263.767 98.0577 263.623 98.1907 263.511 98.354C263.403 98.5127 263.35 98.711 263.35 98.949C263.35 99.1543 263.401 99.3503 263.504 99.537C263.611 99.7237 263.774 99.8753 263.994 99.992C264.218 100.109 264.509 100.167 264.869 100.167ZM276.394 101.21C275.628 101.21 274.977 101.04 274.441 100.699C273.909 100.354 273.503 99.88 273.223 99.278C272.943 98.676 272.798 97.99 272.789 97.22C272.798 96.4313 272.945 95.7383 273.23 95.141C273.519 94.539 273.932 94.07 274.469 93.734C275.005 93.398 275.652 93.23 276.408 93.23C277.206 93.23 277.892 93.426 278.466 93.818C279.044 94.21 279.432 94.7467 279.628 95.428L278.396 95.799C278.237 95.3603 277.978 95.0197 277.619 94.777C277.264 94.5343 276.856 94.413 276.394 94.413C275.876 94.413 275.449 94.5343 275.113 94.777C274.777 95.015 274.527 95.3463 274.364 95.771C274.2 96.191 274.116 96.674 274.112 97.22C274.121 98.06 274.315 98.739 274.693 99.257C275.075 99.7703 275.642 100.027 276.394 100.027C276.888 100.027 277.299 99.915 277.626 99.691C277.952 99.4623 278.2 99.1333 278.368 98.704L279.628 99.033C279.366 99.7377 278.958 100.277 278.403 100.65C277.847 101.023 277.178 101.21 276.394 101.21ZM283.926 101.196C283.441 101.196 283.023 101.119 282.673 100.965C282.328 100.811 282.041 100.606 281.812 100.349C281.584 100.092 281.404 99.8077 281.273 99.495C281.143 99.1823 281.049 98.8627 280.993 98.536C280.942 98.2093 280.916 97.9037 280.916 97.619V93.44H282.176V97.227C282.176 97.5817 282.209 97.9247 282.274 98.256C282.34 98.5873 282.449 98.886 282.603 99.152C282.762 99.418 282.972 99.628 283.233 99.782C283.499 99.936 283.831 100.013 284.227 100.013C284.54 100.013 284.825 99.9593 285.081 99.852C285.338 99.7447 285.557 99.586 285.739 99.376C285.921 99.1613 286.061 98.8907 286.159 98.564C286.257 98.2373 286.306 97.857 286.306 97.423L287.125 97.675C287.125 98.403 286.992 99.0307 286.726 99.558C286.465 100.085 286.094 100.491 285.613 100.776C285.137 101.056 284.575 101.196 283.926 101.196ZM286.446 101V98.977H286.306V93.44H287.559V101H286.446ZM289.659 92.103V90.815H290.905V92.103H289.659ZM289.659 101V93.44H290.905V101H289.659ZM295.973 101.21C295.269 101.21 294.664 101.035 294.16 100.685C293.656 100.33 293.267 99.852 292.991 99.25C292.721 98.648 292.585 97.969 292.585 97.213C292.585 96.457 292.721 95.778 292.991 95.176C293.267 94.574 293.656 94.1003 294.16 93.755C294.664 93.405 295.266 93.23 295.966 93.23C296.68 93.23 297.28 93.4027 297.765 93.748C298.251 94.0933 298.617 94.567 298.864 95.169C299.116 95.771 299.242 96.4523 299.242 97.213C299.242 97.9643 299.116 98.6433 298.864 99.25C298.617 99.852 298.251 100.33 297.765 100.685C297.28 101.035 296.683 101.21 295.973 101.21ZM296.127 100.069C296.636 100.069 297.054 99.9477 297.38 99.705C297.707 99.4577 297.947 99.1193 298.101 98.69C298.26 98.256 298.339 97.7637 298.339 97.213C298.339 96.653 298.26 96.1607 298.101 95.736C297.947 95.3067 297.709 94.973 297.387 94.735C297.065 94.4923 296.657 94.371 296.162 94.371C295.649 94.371 295.224 94.497 294.888 94.749C294.557 95.001 294.31 95.3417 294.146 95.771C293.988 96.2003 293.908 96.681 293.908 97.213C293.908 97.7497 293.99 98.235 294.153 98.669C294.317 99.0983 294.562 99.439 294.888 99.691C295.22 99.943 295.633 100.069 296.127 100.069ZM298.339 101V95.435H298.199V90.92H299.452V101H298.339ZM303.563 101.21C302.998 101.21 302.524 101.107 302.142 100.902C301.764 100.692 301.477 100.417 301.281 100.076C301.089 99.7353 300.994 99.362 300.994 98.956C300.994 98.5593 301.068 98.2163 301.218 97.927C301.372 97.633 301.586 97.3903 301.862 97.199C302.137 97.003 302.466 96.849 302.849 96.737C303.208 96.639 303.609 96.555 304.053 96.485C304.501 96.4103 304.953 96.3427 305.411 96.282C305.868 96.2213 306.295 96.163 306.692 96.107L306.244 96.366C306.258 95.694 306.122 95.197 305.838 94.875C305.558 94.553 305.072 94.392 304.382 94.392C303.924 94.392 303.523 94.497 303.178 94.707C302.837 94.9123 302.597 95.2483 302.457 95.715L301.274 95.358C301.456 94.6953 301.808 94.175 302.331 93.797C302.853 93.419 303.542 93.23 304.396 93.23C305.082 93.23 305.67 93.3537 306.16 93.601C306.654 93.8437 307.009 94.2123 307.224 94.707C307.331 94.9403 307.399 95.1947 307.427 95.47C307.455 95.7407 307.469 96.0253 307.469 96.324V101H306.363V99.187L306.622 99.355C306.337 99.9663 305.938 100.428 305.425 100.741C304.916 101.054 304.295 101.21 303.563 101.21ZM303.752 100.167C304.2 100.167 304.587 100.088 304.914 99.929C305.245 99.7657 305.511 99.5533 305.712 99.292C305.912 99.026 306.043 98.7367 306.104 98.424C306.174 98.1907 306.211 97.9317 306.216 97.647C306.225 97.3577 306.23 97.136 306.23 96.982L306.664 97.171C306.258 97.227 305.859 97.2807 305.467 97.332C305.075 97.3833 304.704 97.4393 304.354 97.5C304.004 97.556 303.689 97.6237 303.409 97.703C303.203 97.7683 303.01 97.8523 302.828 97.955C302.65 98.0577 302.506 98.1907 302.394 98.354C302.286 98.5127 302.233 98.711 302.233 98.949C302.233 99.1543 302.284 99.3503 302.387 99.537C302.494 99.7237 302.657 99.8753 302.877 99.992C303.101 100.109 303.392 100.167 303.752 100.167ZM309.289 101V93.44H310.402V95.267L310.22 95.029C310.308 94.7957 310.423 94.581 310.563 94.385C310.707 94.189 310.868 94.028 311.046 93.902C311.242 93.7433 311.463 93.622 311.711 93.538C311.958 93.454 312.21 93.405 312.467 93.391C312.723 93.3723 312.964 93.3887 313.188 93.44V94.609C312.926 94.539 312.639 94.5203 312.327 94.553C312.014 94.5857 311.725 94.7 311.459 94.896C311.216 95.0687 311.027 95.2787 310.892 95.526C310.761 95.7733 310.67 96.0417 310.619 96.331C310.567 96.6157 310.542 96.9073 310.542 97.206V101H309.289ZM318.732 101C318.284 101.089 317.841 101.124 317.402 101.105C316.968 101.091 316.581 101.005 316.24 100.846C315.9 100.683 315.641 100.431 315.463 100.09C315.314 99.7913 315.232 99.4903 315.218 99.187C315.209 98.879 315.204 98.5313 315.204 98.144V91.34H316.45V98.088C316.45 98.396 316.453 98.6597 316.457 98.879C316.467 99.0983 316.516 99.2873 316.604 99.446C316.772 99.7447 317.038 99.9197 317.402 99.971C317.771 100.022 318.214 100.008 318.732 99.929V101ZM313.671 94.469V93.44H318.732V94.469H313.671ZM323.229 101.21C322.487 101.21 321.838 101.047 321.283 100.72C320.732 100.389 320.303 99.929 319.995 99.341C319.687 98.7483 319.533 98.0577 319.533 97.269C319.533 96.443 319.684 95.729 319.988 95.127C320.291 94.5203 320.713 94.0537 321.255 93.727C321.801 93.3957 322.44 93.23 323.173 93.23C323.933 93.23 324.58 93.405 325.112 93.755C325.648 94.105 326.05 94.6043 326.316 95.253C326.586 95.9017 326.703 96.674 326.666 97.57H325.406V97.122C325.392 96.1933 325.203 95.5003 324.839 95.043C324.475 94.581 323.933 94.35 323.215 94.35C322.445 94.35 321.859 94.5973 321.458 95.092C321.056 95.5867 320.856 96.296 320.856 97.22C320.856 98.1113 321.056 98.802 321.458 99.292C321.859 99.782 322.431 100.027 323.173 100.027C323.672 100.027 324.106 99.9127 324.475 99.684C324.843 99.4553 325.133 99.1263 325.343 98.697L326.54 99.11C326.246 99.7773 325.802 100.295 325.21 100.664C324.622 101.028 323.961 101.21 323.229 101.21ZM320.436 97.57V96.569H326.022V97.57H320.436ZM183.452 121.21C182.743 121.21 182.145 121.035 181.66 120.685C181.175 120.33 180.806 119.852 180.554 119.25C180.307 118.643 180.183 117.964 180.183 117.213C180.183 116.452 180.307 115.771 180.554 115.169C180.806 114.567 181.175 114.093 181.66 113.748C182.15 113.403 182.75 113.23 183.459 113.23C184.159 113.23 184.761 113.405 185.265 113.755C185.774 114.1 186.163 114.574 186.434 115.176C186.705 115.778 186.84 116.457 186.84 117.213C186.84 117.969 186.705 118.648 186.434 119.25C186.163 119.852 185.774 120.33 185.265 120.685C184.761 121.035 184.157 121.21 183.452 121.21ZM179.973 124.36V113.44H181.086V119.005H181.226V124.36H179.973ZM183.298 120.069C183.797 120.069 184.21 119.943 184.537 119.691C184.864 119.439 185.109 119.098 185.272 118.669C185.435 118.235 185.517 117.75 185.517 117.213C185.517 116.681 185.435 116.2 185.272 115.771C185.113 115.342 184.866 115.001 184.53 114.749C184.199 114.497 183.776 114.371 183.263 114.371C182.773 114.371 182.367 114.492 182.045 114.735C181.723 114.973 181.483 115.307 181.324 115.736C181.165 116.161 181.086 116.653 181.086 117.213C181.086 117.764 181.163 118.256 181.317 118.69C181.476 119.119 181.718 119.458 182.045 119.705C182.372 119.948 182.789 120.069 183.298 120.069ZM191.595 121.21C190.843 121.21 190.195 121.04 189.649 120.699C189.107 120.358 188.69 119.887 188.396 119.285C188.102 118.683 187.955 117.992 187.955 117.213C187.955 116.42 188.104 115.724 188.403 115.127C188.701 114.53 189.124 114.065 189.67 113.734C190.216 113.398 190.857 113.23 191.595 113.23C192.351 113.23 193.002 113.4 193.548 113.741C194.094 114.077 194.511 114.546 194.801 115.148C195.095 115.745 195.242 116.434 195.242 117.213C195.242 118.002 195.095 118.697 194.801 119.299C194.507 119.896 194.087 120.365 193.541 120.706C192.995 121.042 192.346 121.21 191.595 121.21ZM191.595 120.027C192.379 120.027 192.962 119.766 193.345 119.243C193.727 118.72 193.919 118.044 193.919 117.213C193.919 116.359 193.725 115.68 193.338 115.176C192.95 114.667 192.369 114.413 191.595 114.413C191.067 114.413 190.633 114.532 190.293 114.77C189.952 115.008 189.698 115.337 189.53 115.757C189.362 116.177 189.278 116.662 189.278 117.213C189.278 118.062 189.474 118.744 189.866 119.257C190.258 119.77 190.834 120.027 191.595 120.027ZM196.783 121V113.44H197.896V115.267L197.714 115.029C197.802 114.796 197.917 114.581 198.057 114.385C198.201 114.189 198.362 114.028 198.54 113.902C198.736 113.743 198.957 113.622 199.205 113.538C199.452 113.454 199.704 113.405 199.961 113.391C200.217 113.372 200.458 113.389 200.682 113.44V114.609C200.42 114.539 200.133 114.52 199.821 114.553C199.508 114.586 199.219 114.7 198.953 114.896C198.71 115.069 198.521 115.279 198.386 115.526C198.255 115.773 198.164 116.042 198.113 116.331C198.061 116.616 198.036 116.907 198.036 117.206V121H196.783ZM207.776 121.21C207.071 121.21 206.467 121.035 205.963 120.685C205.459 120.33 205.069 119.852 204.794 119.25C204.523 118.648 204.388 117.969 204.388 117.213C204.388 116.457 204.523 115.778 204.794 115.176C205.069 114.574 205.459 114.1 205.963 113.755C206.467 113.405 207.069 113.23 207.769 113.23C208.483 113.23 209.083 113.403 209.568 113.748C210.053 114.093 210.42 114.567 210.667 115.169C210.919 115.771 211.045 116.452 211.045 117.213C211.045 117.964 210.919 118.643 210.667 119.25C210.42 119.852 210.053 120.33 209.568 120.685C209.083 121.035 208.485 121.21 207.776 121.21ZM207.93 120.069C208.439 120.069 208.856 119.948 209.183 119.705C209.51 119.458 209.75 119.119 209.904 118.69C210.063 118.256 210.142 117.764 210.142 117.213C210.142 116.653 210.063 116.161 209.904 115.736C209.75 115.307 209.512 114.973 209.19 114.735C208.868 114.492 208.46 114.371 207.965 114.371C207.452 114.371 207.027 114.497 206.691 114.749C206.36 115.001 206.112 115.342 205.949 115.771C205.79 116.2 205.711 116.681 205.711 117.213C205.711 117.75 205.793 118.235 205.956 118.669C206.119 119.098 206.364 119.439 206.691 119.691C207.022 119.943 207.435 120.069 207.93 120.069ZM210.142 121V115.435H210.002V110.92H211.255V121H210.142ZM216.492 121.21C215.75 121.21 215.102 121.047 214.546 120.72C213.996 120.389 213.566 119.929 213.258 119.341C212.95 118.748 212.796 118.058 212.796 117.269C212.796 116.443 212.948 115.729 213.251 115.127C213.555 114.52 213.977 114.054 214.518 113.727C215.064 113.396 215.704 113.23 216.436 113.23C217.197 113.23 217.843 113.405 218.375 113.755C218.912 114.105 219.313 114.604 219.579 115.253C219.85 115.902 219.967 116.674 219.929 117.57H218.669V117.122C218.655 116.193 218.466 115.5 218.102 115.043C217.738 114.581 217.197 114.35 216.478 114.35C215.708 114.35 215.123 114.597 214.721 115.092C214.32 115.587 214.119 116.296 214.119 117.22C214.119 118.111 214.32 118.802 214.721 119.292C215.123 119.782 215.694 120.027 216.436 120.027C216.936 120.027 217.37 119.913 217.738 119.684C218.107 119.455 218.396 119.126 218.606 118.697L219.803 119.11C219.509 119.777 219.066 120.295 218.473 120.664C217.885 121.028 217.225 121.21 216.492 121.21ZM213.699 117.57V116.569H219.285V117.57H213.699ZM226.666 121V117.213C226.666 116.854 226.633 116.508 226.568 116.177C226.507 115.846 226.397 115.549 226.239 115.288C226.085 115.022 225.875 114.812 225.609 114.658C225.347 114.504 225.016 114.427 224.615 114.427C224.302 114.427 224.017 114.481 223.761 114.588C223.509 114.691 223.292 114.849 223.11 115.064C222.928 115.279 222.785 115.549 222.683 115.876C222.585 116.198 222.536 116.578 222.536 117.017L221.717 116.765C221.717 116.032 221.847 115.405 222.109 114.882C222.375 114.355 222.746 113.951 223.222 113.671C223.702 113.386 224.267 113.244 224.916 113.244C225.406 113.244 225.823 113.321 226.169 113.475C226.514 113.629 226.801 113.834 227.03 114.091C227.258 114.343 227.438 114.628 227.569 114.945C227.699 115.258 227.79 115.577 227.842 115.904C227.898 116.226 227.926 116.532 227.926 116.821V121H226.666ZM221.276 121V113.44H222.396V115.463H222.536V121H221.276ZM233.967 121C233.519 121.089 233.075 121.124 232.637 121.105C232.203 121.091 231.815 121.005 231.475 120.846C231.134 120.683 230.875 120.431 230.698 120.09C230.548 119.791 230.467 119.49 230.453 119.187C230.443 118.879 230.439 118.531 230.439 118.144V111.34H231.685V118.088C231.685 118.396 231.687 118.66 231.692 118.879C231.701 119.098 231.75 119.287 231.839 119.446C232.007 119.745 232.273 119.92 232.637 119.971C233.005 120.022 233.449 120.008 233.967 119.929V121ZM228.906 114.469V113.44H233.967V114.469H228.906ZM235.501 121V113.44H236.614V115.267L236.432 115.029C236.521 114.796 236.635 114.581 236.775 114.385C236.92 114.189 237.081 114.028 237.258 113.902C237.454 113.743 237.676 113.622 237.923 113.538C238.171 113.454 238.423 113.405 238.679 113.391C238.936 113.372 239.176 113.389 239.4 113.44V114.609C239.139 114.539 238.852 114.52 238.539 114.553C238.227 114.586 237.937 114.7 237.671 114.896C237.429 115.069 237.24 115.279 237.104 115.526C236.974 115.773 236.883 116.042 236.831 116.331C236.78 116.616 236.754 116.907 236.754 117.206V121H235.501ZM243.807 121.21C243.056 121.21 242.407 121.04 241.861 120.699C241.32 120.358 240.902 119.887 240.608 119.285C240.314 118.683 240.167 117.992 240.167 117.213C240.167 116.42 240.317 115.724 240.615 115.127C240.914 114.53 241.336 114.065 241.882 113.734C242.428 113.398 243.07 113.23 243.807 113.23C244.563 113.23 245.214 113.4 245.76 113.741C246.306 114.077 246.724 114.546 247.013 115.148C247.307 115.745 247.454 116.434 247.454 117.213C247.454 118.002 247.307 118.697 247.013 119.299C246.719 119.896 246.299 120.365 245.753 120.706C245.207 121.042 244.559 121.21 243.807 121.21ZM243.807 120.027C244.591 120.027 245.175 119.766 245.557 119.243C245.94 118.72 246.131 118.044 246.131 117.213C246.131 116.359 245.938 115.68 245.55 115.176C245.163 114.667 244.582 114.413 243.807 114.413C243.28 114.413 242.846 114.532 242.505 114.77C242.165 115.008 241.91 115.337 241.742 115.757C241.574 116.177 241.49 116.662 241.49 117.213C241.49 118.062 241.686 118.744 242.078 119.257C242.47 119.77 243.047 120.027 243.807 120.027ZM252.848 124.36L254.311 120.384L254.332 121.56L251.028 113.44H252.337L254.927 119.971H254.479L256.908 113.44H258.175L254.059 124.36H252.848ZM265.606 121.21C264.897 121.21 264.3 121.035 263.814 120.685C263.329 120.33 262.96 119.852 262.708 119.25C262.461 118.643 262.337 117.964 262.337 117.213C262.337 116.452 262.461 115.771 262.708 115.169C262.96 114.567 263.329 114.093 263.814 113.748C264.304 113.403 264.904 113.23 265.613 113.23C266.313 113.23 266.915 113.405 267.419 113.755C267.928 114.1 268.318 114.574 268.588 115.176C268.859 115.778 268.994 116.457 268.994 117.213C268.994 117.969 268.859 118.648 268.588 119.25C268.318 119.852 267.928 120.33 267.419 120.685C266.915 121.035 266.311 121.21 265.606 121.21ZM262.127 124.36V113.44H263.24V119.005H263.38V124.36H262.127ZM265.452 120.069C265.952 120.069 266.365 119.943 266.691 119.691C267.018 119.439 267.263 119.098 267.426 118.669C267.59 118.235 267.671 117.75 267.671 117.213C267.671 116.681 267.59 116.2 267.426 115.771C267.268 115.342 267.02 115.001 266.684 114.749C266.353 114.497 265.931 114.371 265.417 114.371C264.927 114.371 264.521 114.492 264.199 114.735C263.877 114.973 263.637 115.307 263.478 115.736C263.32 116.161 263.24 116.653 263.24 117.213C263.24 117.764 263.317 118.256 263.471 118.69C263.63 119.119 263.873 119.458 264.199 119.705C264.526 119.948 264.944 120.069 265.452 120.069ZM273.749 121.21C272.997 121.21 272.349 121.04 271.803 120.699C271.261 120.358 270.844 119.887 270.55 119.285C270.256 118.683 270.109 117.992 270.109 117.213C270.109 116.42 270.258 115.724 270.557 115.127C270.855 114.53 271.278 114.065 271.824 113.734C272.37 113.398 273.011 113.23 273.749 113.23C274.505 113.23 275.156 113.4 275.702 113.741C276.248 114.077 276.665 114.546 276.955 115.148C277.249 115.745 277.396 116.434 277.396 117.213C277.396 118.002 277.249 118.697 276.955 119.299C276.661 119.896 276.241 120.365 275.695 120.706C275.149 121.042 274.5 121.21 273.749 121.21ZM273.749 120.027C274.533 120.027 275.116 119.766 275.499 119.243C275.881 118.72 276.073 118.044 276.073 117.213C276.073 116.359 275.879 115.68 275.492 115.176C275.104 114.667 274.523 114.413 273.749 114.413C273.221 114.413 272.787 114.532 272.447 114.77C272.106 115.008 271.852 115.337 271.684 115.757C271.516 116.177 271.432 116.662 271.432 117.213C271.432 118.062 271.628 118.744 272.02 119.257C272.412 119.77 272.988 120.027 273.749 120.027ZM278.937 121V113.44H280.05V115.267L279.868 115.029C279.957 114.796 280.071 114.581 280.211 114.385C280.356 114.189 280.517 114.028 280.694 113.902C280.89 113.743 281.112 113.622 281.359 113.538C281.606 113.454 281.858 113.405 282.115 113.391C282.372 113.372 282.612 113.389 282.836 113.44V114.609C282.575 114.539 282.288 114.52 281.975 114.553C281.662 114.586 281.373 114.7 281.107 114.896C280.864 115.069 280.675 115.279 280.54 115.526C280.409 115.773 280.318 116.042 280.267 116.331C280.216 116.616 280.19 116.907 280.19 117.206V121H278.937ZM287.683 121V113.027C287.683 112.831 287.693 112.633 287.711 112.432C287.73 112.227 287.772 112.028 287.837 111.837C287.903 111.641 288.01 111.461 288.159 111.298C288.332 111.107 288.521 110.971 288.726 110.892C288.932 110.808 289.139 110.757 289.349 110.738C289.564 110.719 289.767 110.71 289.958 110.71H290.917V111.746H290.028C289.66 111.746 289.384 111.837 289.202 112.019C289.02 112.196 288.929 112.467 288.929 112.831V121H287.683ZM286.402 114.469V113.44H290.917V114.469H286.402ZM294.905 121.196C294.419 121.196 294.002 121.119 293.652 120.965C293.306 120.811 293.019 120.606 292.791 120.349C292.562 120.092 292.382 119.808 292.252 119.495C292.121 119.182 292.028 118.863 291.972 118.536C291.92 118.209 291.895 117.904 291.895 117.619V113.44H293.155V117.227C293.155 117.582 293.187 117.925 293.253 118.256C293.318 118.587 293.428 118.886 293.582 119.152C293.74 119.418 293.95 119.628 294.212 119.782C294.478 119.936 294.809 120.013 295.206 120.013C295.518 120.013 295.803 119.959 296.06 119.852C296.316 119.745 296.536 119.586 296.718 119.376C296.9 119.161 297.04 118.891 297.138 118.564C297.236 118.237 297.285 117.857 297.285 117.423L298.104 117.675C298.104 118.403 297.971 119.031 297.705 119.558C297.443 120.085 297.072 120.491 296.592 120.776C296.116 121.056 295.553 121.196 294.905 121.196ZM297.425 121V118.977H297.285V113.44H298.538V121H297.425ZM303.774 121.21C303.032 121.21 302.383 121.047 301.828 120.72C301.277 120.389 300.848 119.929 300.54 119.341C300.232 118.748 300.078 118.058 300.078 117.269C300.078 116.443 300.229 115.729 300.533 115.127C300.836 114.52 301.258 114.054 301.8 113.727C302.346 113.396 302.985 113.23 303.718 113.23C304.478 113.23 305.125 113.405 305.657 113.755C306.193 114.105 306.595 114.604 306.861 115.253C307.131 115.902 307.248 116.674 307.211 117.57H305.951V117.122C305.937 116.193 305.748 115.5 305.384 115.043C305.02 114.581 304.478 114.35 303.76 114.35C302.99 114.35 302.404 114.597 302.003 115.092C301.601 115.587 301.401 116.296 301.401 117.22C301.401 118.111 301.601 118.802 302.003 119.292C302.404 119.782 302.976 120.027 303.718 120.027C304.217 120.027 304.651 119.913 305.02 119.684C305.388 119.455 305.678 119.126 305.888 118.697L307.085 119.11C306.791 119.777 306.347 120.295 305.755 120.664C305.167 121.028 304.506 121.21 303.774 121.21ZM300.981 117.57V116.569H306.567V117.57H300.981ZM308.769 121V113.44H309.882V115.267L309.7 115.029C309.789 114.796 309.903 114.581 310.043 114.385C310.188 114.189 310.349 114.028 310.526 113.902C310.722 113.743 310.944 113.622 311.191 113.538C311.438 113.454 311.69 113.405 311.947 113.391C312.204 113.372 312.444 113.389 312.668 113.44V114.609C312.407 114.539 312.12 114.52 311.807 114.553C311.494 114.586 311.205 114.7 310.939 114.896C310.696 115.069 310.507 115.279 310.372 115.526C310.241 115.773 310.15 116.042 310.099 116.331C310.048 116.616 310.022 116.907 310.022 117.206V121H308.769ZM315.895 121.21C315.33 121.21 314.856 121.107 314.474 120.902C314.096 120.692 313.809 120.417 313.613 120.076C313.421 119.735 313.326 119.362 313.326 118.956C313.326 118.559 313.4 118.216 313.55 117.927C313.704 117.633 313.918 117.39 314.194 117.199C314.469 117.003 314.798 116.849 315.181 116.737C315.54 116.639 315.941 116.555 316.385 116.485C316.833 116.41 317.285 116.343 317.743 116.282C318.2 116.221 318.627 116.163 319.024 116.107L318.576 116.366C318.59 115.694 318.454 115.197 318.17 114.875C317.89 114.553 317.404 114.392 316.714 114.392C316.256 114.392 315.855 114.497 315.51 114.707C315.169 114.912 314.929 115.248 314.789 115.715L313.606 115.358C313.788 114.695 314.14 114.175 314.663 113.797C315.185 113.419 315.874 113.23 316.728 113.23C317.414 113.23 318.002 113.354 318.492 113.601C318.986 113.844 319.341 114.212 319.556 114.707C319.663 114.94 319.731 115.195 319.759 115.47C319.787 115.741 319.801 116.025 319.801 116.324V121H318.695V119.187L318.954 119.355C318.669 119.966 318.27 120.428 317.757 120.741C317.248 121.054 316.627 121.21 315.895 121.21ZM316.084 120.167C316.532 120.167 316.919 120.088 317.246 119.929C317.577 119.766 317.843 119.553 318.044 119.292C318.244 119.026 318.375 118.737 318.436 118.424C318.506 118.191 318.543 117.932 318.548 117.647C318.557 117.358 318.562 117.136 318.562 116.982L318.996 117.171C318.59 117.227 318.191 117.281 317.799 117.332C317.407 117.383 317.036 117.439 316.686 117.5C316.336 117.556 316.021 117.624 315.741 117.703C315.535 117.768 315.342 117.852 315.16 117.955C314.982 118.058 314.838 118.191 314.726 118.354C314.618 118.513 314.565 118.711 314.565 118.949C314.565 119.154 314.616 119.35 314.719 119.537C314.826 119.724 314.989 119.875 315.209 119.992C315.433 120.109 315.724 120.167 316.084 120.167ZM321.845 121V119.628H323.217V121H321.845Z" fill="black" fill-opacity="0.7"/>
<path d="M269 171.5H322C330.56 171.5 337.5 178.44 337.5 187C337.5 195.56 330.56 202.5 322 202.5H269C260.44 202.5 253.5 195.56 253.5 187C253.5 178.44 260.44 171.5 269 171.5Z" fill="white" stroke="#6697F4"/>
<path d="M275.927 192L273.119 183.36H274.421L276.815 190.734L279.239 183.36H280.541L277.733 192H275.927ZM283.605 192.18C282.961 192.18 282.395 192.04 281.907 191.76C281.423 191.476 281.045 191.082 280.773 190.578C280.505 190.07 280.371 189.482 280.371 188.814C280.371 188.106 280.503 187.492 280.767 186.972C281.035 186.452 281.407 186.05 281.883 185.766C282.359 185.482 282.913 185.34 283.545 185.34C284.205 185.34 284.767 185.494 285.231 185.802C285.695 186.106 286.041 186.54 286.269 187.104C286.501 187.668 286.593 188.338 286.545 189.114H285.291V188.658C285.283 187.906 285.139 187.35 284.859 186.99C284.583 186.63 284.161 186.45 283.593 186.45C282.965 186.45 282.493 186.648 282.177 187.044C281.861 187.44 281.703 188.012 281.703 188.76C281.703 189.472 281.861 190.024 282.177 190.416C282.493 190.804 282.949 190.998 283.545 190.998C283.937 190.998 284.275 190.91 284.559 190.734C284.847 190.554 285.071 190.298 285.231 189.966L286.461 190.356C286.209 190.936 285.827 191.386 285.315 191.706C284.803 192.022 284.233 192.18 283.605 192.18ZM281.295 189.114V188.136H285.921V189.114H281.295ZM287.891 192V185.52H289.007V187.092L288.851 186.888C288.931 186.68 289.035 186.49 289.163 186.318C289.291 186.142 289.439 185.998 289.607 185.886C289.771 185.766 289.953 185.674 290.153 185.61C290.357 185.542 290.565 185.502 290.777 185.49C290.989 185.474 291.193 185.484 291.389 185.52V186.696C291.177 186.64 290.941 186.624 290.681 186.648C290.425 186.672 290.189 186.754 289.973 186.894C289.769 187.026 289.607 187.186 289.487 187.374C289.371 187.562 289.287 187.772 289.235 188.004C289.183 188.232 289.157 188.474 289.157 188.73V192H287.891ZM302.698 192L302.704 187.962C302.704 187.494 302.584 187.13 302.344 186.87C302.104 186.606 301.788 186.474 301.396 186.474C301.156 186.474 300.936 186.53 300.736 186.642C300.54 186.75 300.38 186.914 300.256 187.134C300.136 187.35 300.076 187.622 300.076 187.95L299.47 187.644C299.462 187.188 299.558 186.788 299.758 186.444C299.962 186.1 300.238 185.834 300.586 185.646C300.934 185.454 301.324 185.358 301.756 185.358C302.456 185.358 302.998 185.568 303.382 185.988C303.766 186.408 303.958 186.966 303.958 187.662L303.952 192H302.698ZM294.928 192V185.52H296.044V187.392H296.188V192H294.928ZM298.816 192L298.822 187.986C298.822 187.514 298.702 187.144 298.462 186.876C298.226 186.608 297.908 186.474 297.508 186.474C297.112 186.474 296.792 186.61 296.548 186.882C296.308 187.154 296.188 187.51 296.188 187.95L295.588 187.566C295.588 187.142 295.69 186.764 295.894 186.432C296.098 186.1 296.374 185.838 296.722 185.646C297.07 185.454 297.464 185.358 297.904 185.358C298.364 185.358 298.756 185.456 299.08 185.652C299.404 185.844 299.65 186.114 299.818 186.462C299.99 186.81 300.076 187.214 300.076 187.674L300.07 192H298.816ZM308.684 184.56H307.7L308.552 182.46H309.536L308.684 184.56ZM307.346 192.18C306.866 192.18 306.464 192.092 306.14 191.916C305.816 191.736 305.57 191.5 305.402 191.208C305.238 190.912 305.156 190.588 305.156 190.236C305.156 189.908 305.214 189.62 305.33 189.372C305.446 189.124 305.618 188.914 305.846 188.742C306.074 188.566 306.354 188.424 306.686 188.316C306.974 188.232 307.3 188.158 307.664 188.094C308.028 188.03 308.41 187.97 308.81 187.914C309.214 187.858 309.614 187.802 310.01 187.746L309.554 187.998C309.562 187.49 309.454 187.114 309.23 186.87C309.01 186.622 308.63 186.498 308.09 186.498C307.75 186.498 307.438 186.578 307.154 186.738C306.87 186.894 306.672 187.154 306.56 187.518L305.39 187.158C305.55 186.602 305.854 186.16 306.302 185.832C306.754 185.504 307.354 185.34 308.102 185.34C308.682 185.34 309.186 185.44 309.614 185.64C310.046 185.836 310.362 186.148 310.562 186.576C310.666 186.788 310.73 187.012 310.754 187.248C310.778 187.484 310.79 187.738 310.79 188.01V192H309.68V190.518L309.896 190.71C309.628 191.206 309.286 191.576 308.87 191.82C308.458 192.06 307.95 192.18 307.346 192.18ZM307.568 191.154C307.924 191.154 308.23 191.092 308.486 190.968C308.742 190.84 308.948 190.678 309.104 190.482C309.26 190.286 309.362 190.082 309.41 189.87C309.478 189.678 309.516 189.462 309.524 189.222C309.536 188.982 309.542 188.79 309.542 188.646L309.95 188.796C309.554 188.856 309.194 188.91 308.87 188.958C308.546 189.006 308.252 189.054 307.988 189.102C307.728 189.146 307.496 189.2 307.292 189.264C307.12 189.324 306.966 189.396 306.83 189.48C306.698 189.564 306.592 189.666 306.512 189.786C306.436 189.906 306.398 190.052 306.398 190.224C306.398 190.392 306.44 190.548 306.524 190.692C306.608 190.832 306.736 190.944 306.908 191.028C307.08 191.112 307.3 191.154 307.568 191.154ZM314.826 192.174C314.038 192.174 313.396 192 312.9 191.652C312.404 191.304 312.1 190.814 311.988 190.182L313.272 189.984C313.352 190.32 313.536 190.586 313.824 190.782C314.116 190.974 314.478 191.07 314.91 191.07C315.302 191.07 315.608 190.99 315.828 190.83C316.052 190.67 316.164 190.45 316.164 190.17C316.164 190.006 316.124 189.874 316.044 189.774C315.968 189.67 315.806 189.572 315.558 189.48C315.31 189.388 314.932 189.274 314.424 189.138C313.868 188.994 313.426 188.84 313.098 188.676C312.774 188.508 312.542 188.314 312.402 188.094C312.266 187.87 312.198 187.6 312.198 187.284C312.198 186.892 312.302 186.55 312.51 186.258C312.718 185.966 313.01 185.74 313.386 185.58C313.766 185.42 314.21 185.34 314.718 185.34C315.214 185.34 315.656 185.418 316.044 185.574C316.432 185.73 316.746 185.952 316.986 186.24C317.226 186.524 317.37 186.858 317.418 187.242L316.134 187.476C316.09 187.164 315.944 186.918 315.696 186.738C315.448 186.558 315.126 186.46 314.73 186.444C314.35 186.428 314.042 186.492 313.806 186.636C313.57 186.776 313.452 186.97 313.452 187.218C313.452 187.362 313.496 187.484 313.584 187.584C313.676 187.684 313.852 187.78 314.112 187.872C314.372 187.964 314.756 188.074 315.264 188.202C315.808 188.342 316.24 188.498 316.56 188.67C316.88 188.838 317.108 189.04 317.244 189.276C317.384 189.508 317.454 189.79 317.454 190.122C317.454 190.762 317.22 191.264 316.752 191.628C316.288 191.992 315.646 192.174 314.826 192.174Z" fill="#233BC1"/>
</g>
<defs>
<filter id="filter0_d_7_17320" x="-12" y="-8" width="374" height="239" filterUnits="userSpaceOnUse" color-interpolation-filters="sRGB">
<feFlood flood-opacity="0" result="BackgroundImageFix"/>
<feColorMatrix in="SourceAlpha" type="matrix" values="0 0 0 0 0 0 0 0 0 0 0 0 0 0 0 0 0 0 127 0" result="hardAlpha"/>
<feOffset dy="4"/>
<feGaussianBlur stdDeviation="6"/>
<feColorMatrix type="matrix" values="0 0 0 0 0.909804 0 0 0 0 0.901961 0 0 0 0 0.890196 0 0 0 1 0"/>
<feBlend mode="multiply" in2="BackgroundImageFix" result="effect1_dropShadow_7_17320"/>
<feBlend mode="normal" in="SourceGraphic" in2="effect1_dropShadow_7_17320" result="shape"/>
</filter>
</defs>
</svg>
