<svg width="350" height="85" viewBox="0 0 350 85" fill="none" xmlns="http://www.w3.org/2000/svg">
<path d="M0 8C0 3.58172 3.58172 0 8 0H342C346.418 0 350 3.58172 350 8V77C350 81.4183 346.418 85 342 85H8C3.58172 85 0 81.4183 0 77V8Z" fill="#FAFAFA"/>
<path d="M8 0.5H342C346.142 0.5 349.5 3.85786 349.5 8V77C349.5 81.1421 346.142 84.5 342 84.5H8C3.85787 84.5 0.5 81.1421 0.5 77V8C0.5 3.85786 3.85786 0.5 8 0.5Z" stroke="black" stroke-opacity="0.1"/>
<rect x="24.75" y="12.75" width="25.5" height="25.5" rx="12.75" fill="#F0F5FE"/>
<rect x="24.75" y="12.75" width="25.5" height="25.5" rx="12.75" stroke="#233BC1" stroke-width="1.5"/>
<path d="M43.6933 21.9733L44.6333 21.0333L41.9667 18.3666L41.0267 19.3066L41.8867 20.1666L41.16 20.8933L39.9667 19.7L38.6333 18.3666L37.6933 19.3066L38.5533 20.1666L32.36 26.36C32.2982 26.4223 32.2493 26.4961 32.2161 26.5774C32.183 26.6586 32.1661 26.7456 32.1667 26.8333V29.8933L30.36 31.7L31.3 32.64L33.1067 30.8333H36.1667C36.3467 30.8333 36.5133 30.76 36.64 30.64L42.8333 24.4466L43.6933 25.3066L44.6333 24.3666L43.3 23.0333L42.1067 21.84L42.8333 21.1133L43.6933 21.9733ZM35.8867 29.5H33.4933V27.1066L35.16 25.44L36.3533 26.6333L37.2933 25.6933L36.1 24.5L37.16 23.44L38.3533 24.6333L39.2933 23.6933L38.1 22.5L39.4933 21.1066L41.8867 23.5L35.8867 29.5Z" fill="#1228A5"/>
<path d="M29.5653 54V47.785H27.1703V46.8H33.0053V47.785H30.6103V54H29.5653ZM33.9055 47.715V46.7H34.9505V47.715H33.9055ZM33.9055 54V48.6H34.9505V54H33.9055ZM38.987 54.15C38.4703 54.15 38.037 54.025 37.687 53.775C37.337 53.5217 37.072 53.18 36.892 52.75C36.712 52.32 36.622 51.835 36.622 51.295C36.622 50.755 36.7103 50.27 36.887 49.84C37.067 49.41 37.3303 49.0717 37.677 48.825C38.027 48.575 38.457 48.45 38.967 48.45C39.4736 48.45 39.9103 48.575 40.277 48.825C40.647 49.0717 40.932 49.41 41.132 49.84C41.332 50.2667 41.432 50.7517 41.432 51.295C41.432 51.835 41.332 52.3217 41.132 52.755C40.9353 53.185 40.6536 53.525 40.287 53.775C39.9236 54.025 39.4903 54.15 38.987 54.15ZM36.447 56.4V48.6H37.377V52.485H37.497V56.4H36.447ZM38.842 53.205C39.1753 53.205 39.4503 53.12 39.667 52.95C39.887 52.78 40.0503 52.5517 40.157 52.265C40.267 51.975 40.322 51.6517 40.322 51.295C40.322 50.9417 40.267 50.6217 40.157 50.335C40.0503 50.0483 39.8853 49.82 39.662 49.65C39.4386 49.48 39.1536 49.395 38.807 49.395C38.4803 49.395 38.2103 49.475 37.997 49.635C37.787 49.795 37.6303 50.0183 37.527 50.305C37.427 50.5917 37.377 50.9217 37.377 51.295C37.377 51.6683 37.427 51.9983 37.527 52.285C37.627 52.5717 37.7853 52.7967 38.002 52.96C38.2186 53.1233 38.4986 53.205 38.842 53.205ZM44.8809 54.15C44.3409 54.15 43.8726 54.0283 43.4759 53.785C43.0793 53.5417 42.7726 53.2067 42.5559 52.78C42.3426 52.35 42.2359 51.855 42.2359 51.295C42.2359 50.7317 42.3459 50.2367 42.5659 49.81C42.7859 49.38 43.0943 49.0467 43.4909 48.81C43.8876 48.57 44.3509 48.45 44.8809 48.45C45.4209 48.45 45.8893 48.5717 46.2859 48.815C46.6826 49.0583 46.9893 49.3933 47.2059 49.82C47.4226 50.2467 47.5309 50.7383 47.5309 51.295C47.5309 51.8583 47.4209 52.355 47.2009 52.785C46.9843 53.2117 46.6776 53.5467 46.2809 53.79C45.8843 54.03 45.4176 54.15 44.8809 54.15ZM44.8809 53.165C45.3976 53.165 45.7826 52.9917 46.0359 52.645C46.2926 52.295 46.4209 51.845 46.4209 51.295C46.4209 50.7317 46.2909 50.2817 46.0309 49.945C45.7743 49.605 45.3909 49.435 44.8809 49.435C44.5309 49.435 44.2426 49.515 44.0159 49.675C43.7893 49.8317 43.6209 50.05 43.5109 50.33C43.4009 50.6067 43.3459 50.9283 43.3459 51.295C43.3459 51.8617 43.4759 52.315 43.7359 52.655C43.9959 52.995 44.3776 53.165 44.8809 53.165ZM16.0921 68.15C15.5887 68.15 15.1537 68.025 14.7871 67.775C14.4237 67.525 14.1421 67.185 13.9421 66.755C13.7454 66.3217 13.6471 65.835 13.6471 65.295C13.6471 64.7517 13.7471 64.2667 13.9471 63.84C14.1471 63.41 14.4304 63.0717 14.7971 62.825C15.1671 62.575 15.6054 62.45 16.1121 62.45C16.6221 62.45 17.0504 62.575 17.3971 62.825C17.7471 63.0717 18.0104 63.41 18.1871 63.84C18.3671 64.27 18.4571 64.755 18.4571 65.295C18.4571 65.835 18.3671 66.32 18.1871 66.75C18.0071 67.18 17.7421 67.5217 17.3921 67.775C17.0421 68.025 16.6087 68.15 16.0921 68.15ZM16.2371 67.205C16.5804 67.205 16.8604 67.1233 17.0771 66.96C17.2937 66.7967 17.4521 66.5717 17.5521 66.285C17.6521 65.9983 17.7021 65.6683 17.7021 65.295C17.7021 64.9217 17.6504 64.5917 17.5471 64.305C17.4471 64.0183 17.2904 63.795 17.0771 63.635C16.8671 63.475 16.5987 63.395 16.2721 63.395C15.9254 63.395 15.6404 63.48 15.4171 63.65C15.1937 63.82 15.0271 64.0483 14.9171 64.335C14.8104 64.6217 14.7571 64.9417 14.7571 65.295C14.7571 65.6517 14.8104 65.975 14.9171 66.265C15.0271 66.5517 15.1904 66.78 15.4071 66.95C15.6271 67.12 15.9037 67.205 16.2371 67.205ZM17.7021 68V64.115H17.5821V60.8H18.6321V68H17.7021ZM22.4261 68.15C21.8894 68.15 21.4177 68.0333 21.0111 67.8C20.6077 67.5633 20.2927 67.235 20.0661 66.815C19.8427 66.3917 19.7311 65.9017 19.7311 65.345C19.7311 64.755 19.8411 64.2433 20.0611 63.81C20.2844 63.3767 20.5944 63.0417 20.9911 62.805C21.3877 62.5683 21.8494 62.45 22.3761 62.45C22.9261 62.45 23.3944 62.5783 23.7811 62.835C24.1677 63.0883 24.4561 63.45 24.6461 63.92C24.8394 64.39 24.9161 64.9483 24.8761 65.595H23.8311V65.215C23.8244 64.5883 23.7044 64.125 23.4711 63.825C23.2411 63.525 22.8894 63.375 22.4161 63.375C21.8927 63.375 21.4994 63.54 21.2361 63.87C20.9727 64.2 20.8411 64.6767 20.8411 65.3C20.8411 65.8933 20.9727 66.3533 21.2361 66.68C21.4994 67.0033 21.8794 67.165 22.3761 67.165C22.7027 67.165 22.9844 67.0917 23.2211 66.945C23.4611 66.795 23.6477 66.5817 23.7811 66.305L24.8061 66.63C24.5961 67.1133 24.2777 67.4883 23.8511 67.755C23.4244 68.0183 22.9494 68.15 22.4261 68.15ZM20.5011 65.595V64.78H24.3561V65.595H20.5011ZM29.4598 68L27.4998 62.6H28.5548L29.9898 66.69L31.4248 62.6H32.4798L30.5198 68H29.4598ZM34.6029 68.15C34.2029 68.15 33.8679 68.0767 33.5979 67.93C33.3279 67.78 33.1229 67.5833 32.9829 67.34C32.8463 67.0933 32.7779 66.8233 32.7779 66.53C32.7779 66.2567 32.8263 66.0167 32.9229 65.81C33.0196 65.6033 33.1629 65.4283 33.3529 65.285C33.5429 65.1383 33.7763 65.02 34.0529 64.93C34.2929 64.86 34.5646 64.7983 34.8679 64.745C35.1713 64.6917 35.4896 64.6417 35.8229 64.595C36.1596 64.5483 36.4929 64.5017 36.8229 64.455L36.4429 64.665C36.4496 64.2417 36.3596 63.9283 36.1729 63.725C35.9896 63.5183 35.6729 63.415 35.2229 63.415C34.9396 63.415 34.6796 63.4817 34.4429 63.615C34.2063 63.745 34.0413 63.9617 33.9479 64.265L32.9729 63.965C33.1063 63.5017 33.3596 63.1333 33.7329 62.86C34.1096 62.5867 34.6096 62.45 35.2329 62.45C35.7163 62.45 36.1363 62.5333 36.4929 62.7C36.8529 62.8633 37.1163 63.1233 37.2829 63.48C37.3696 63.6567 37.4229 63.8433 37.4429 64.04C37.4629 64.2367 37.4729 64.4483 37.4729 64.675V68H36.5479V66.765L36.7279 66.925C36.5046 67.3383 36.2196 67.6467 35.8729 67.85C35.5296 68.05 35.1063 68.15 34.6029 68.15ZM34.7879 67.295C35.0846 67.295 35.3396 67.2433 35.5529 67.14C35.7663 67.0333 35.9379 66.8983 36.0679 66.735C36.1979 66.5717 36.2829 66.4017 36.3229 66.225C36.3796 66.065 36.4113 65.885 36.4179 65.685C36.4279 65.485 36.4329 65.325 36.4329 65.205L36.7729 65.33C36.4429 65.38 36.1429 65.425 35.8729 65.465C35.6029 65.505 35.3579 65.545 35.1379 65.585C34.9213 65.6217 34.7279 65.6667 34.5579 65.72C34.4146 65.77 34.2863 65.83 34.1729 65.9C34.0629 65.97 33.9746 66.055 33.9079 66.155C33.8446 66.255 33.8129 66.3767 33.8129 66.52C33.8129 66.66 33.8479 66.79 33.9179 66.91C33.9879 67.0267 34.0946 67.12 34.2379 67.19C34.3813 67.26 34.5646 67.295 34.7879 67.295ZM41.0813 68.15C40.528 68.15 40.058 68.0267 39.6713 67.78C39.2846 67.5333 38.988 67.195 38.7813 66.765C38.578 66.335 38.4746 65.8467 38.4713 65.3C38.4746 64.7433 38.5813 64.2517 38.7913 63.825C39.0013 63.395 39.3013 63.0583 39.6913 62.815C40.0813 62.5717 40.5496 62.45 41.0963 62.45C41.6863 62.45 42.1896 62.5967 42.6063 62.89C43.0263 63.1833 43.303 63.585 43.4363 64.095L42.3963 64.395C42.293 64.0917 42.123 63.8567 41.8863 63.69C41.653 63.52 41.3846 63.435 41.0813 63.435C40.738 63.435 40.4563 63.5167 40.2363 63.68C40.0163 63.84 39.853 64.06 39.7463 64.34C39.6396 64.62 39.5846 64.94 39.5813 65.3C39.5846 65.8567 39.7113 66.3067 39.9613 66.65C40.2146 66.9933 40.588 67.165 41.0813 67.165C41.418 67.165 41.6896 67.0883 41.8963 66.935C42.1063 66.7783 42.2663 66.555 42.3763 66.265L43.4363 66.515C43.2596 67.0417 42.968 67.4467 42.5613 67.73C42.1546 68.01 41.6613 68.15 41.0813 68.15ZM46.4899 68.145C46.1165 68.145 45.8032 68.085 45.5499 67.965C45.2965 67.845 45.0899 67.6883 44.9299 67.495C44.7732 67.2983 44.6532 67.085 44.5699 66.855C44.4865 66.625 44.4299 66.4 44.3999 66.18C44.3699 65.96 44.3549 65.7667 44.3549 65.6V62.6H45.4149V65.255C45.4149 65.465 45.4315 65.6817 45.4649 65.905C45.5015 66.125 45.5682 66.33 45.6649 66.52C45.7649 66.71 45.9032 66.8633 46.0799 66.98C46.2599 67.0967 46.4932 67.155 46.7799 67.155C46.9665 67.155 47.1432 67.125 47.3099 67.065C47.4765 67.0017 47.6215 66.9017 47.7449 66.765C47.8715 66.6283 47.9699 66.4483 48.0399 66.225C48.1132 66.0017 48.1499 65.73 48.1499 65.41L48.7999 65.655C48.7999 66.145 48.7082 66.5783 48.5249 66.955C48.3415 67.3283 48.0782 67.62 47.7349 67.83C47.3915 68.04 46.9765 68.145 46.4899 68.145ZM48.2749 68V66.44H48.1499V62.6H49.2049V68H48.2749ZM54.3972 68V65.345C54.3972 65.135 54.3789 64.92 54.3422 64.7C54.3089 64.4767 54.2422 64.27 54.1422 64.08C54.0456 63.89 53.9072 63.7367 53.7272 63.62C53.5506 63.5033 53.3189 63.445 53.0322 63.445C52.8456 63.445 52.6689 63.4767 52.5022 63.54C52.3356 63.6 52.1889 63.6983 52.0622 63.835C51.9389 63.9717 51.8406 64.1517 51.7672 64.375C51.6972 64.5983 51.6622 64.87 51.6622 65.19L51.0122 64.945C51.0122 64.455 51.1039 64.0233 51.2872 63.65C51.4706 63.2733 51.7339 62.98 52.0772 62.77C52.4206 62.56 52.8356 62.455 53.3222 62.455C53.6956 62.455 54.0089 62.515 54.2622 62.635C54.5156 62.755 54.7206 62.9133 54.8772 63.11C55.0372 63.3033 55.1589 63.515 55.2422 63.745C55.3256 63.975 55.3822 64.2 55.4122 64.42C55.4422 64.64 55.4572 64.8333 55.4572 65V68H54.3972ZM50.6022 68V62.6H51.5372V64.16H51.6622V68H50.6022ZM58.2846 68.15C57.8846 68.15 57.5496 68.0767 57.2796 67.93C57.0096 67.78 56.8046 67.5833 56.6646 67.34C56.5279 67.0933 56.4596 66.8233 56.4596 66.53C56.4596 66.2567 56.5079 66.0167 56.6046 65.81C56.7012 65.6033 56.8446 65.4283 57.0346 65.285C57.2246 65.1383 57.4579 65.02 57.7346 64.93C57.9746 64.86 58.2462 64.7983 58.5496 64.745C58.8529 64.6917 59.1712 64.6417 59.5046 64.595C59.8412 64.5483 60.1746 64.5017 60.5046 64.455L60.1246 64.665C60.1312 64.2417 60.0412 63.9283 59.8546 63.725C59.6712 63.5183 59.3546 63.415 58.9046 63.415C58.6212 63.415 58.3612 63.4817 58.1246 63.615C57.8879 63.745 57.7229 63.9617 57.6296 64.265L56.6546 63.965C56.7879 63.5017 57.0412 63.1333 57.4146 62.86C57.7912 62.5867 58.2912 62.45 58.9146 62.45C59.3979 62.45 59.8179 62.5333 60.1746 62.7C60.5346 62.8633 60.7979 63.1233 60.9646 63.48C61.0512 63.6567 61.1046 63.8433 61.1246 64.04C61.1446 64.2367 61.1546 64.4483 61.1546 64.675V68H60.2296V66.765L60.4096 66.925C60.1862 67.3383 59.9012 67.6467 59.5546 67.85C59.2112 68.05 58.7879 68.15 58.2846 68.15ZM58.4696 67.295C58.7662 67.295 59.0212 67.2433 59.2346 67.14C59.4479 67.0333 59.6196 66.8983 59.7496 66.735C59.8796 66.5717 59.9646 66.4017 60.0046 66.225C60.0612 66.065 60.0929 65.885 60.0996 65.685C60.1096 65.485 60.1146 65.325 60.1146 65.205L60.4546 65.33C60.1246 65.38 59.8246 65.425 59.5546 65.465C59.2846 65.505 59.0396 65.545 58.8196 65.585C58.6029 65.6217 58.4096 65.6667 58.2396 65.72C58.0962 65.77 57.9679 65.83 57.8546 65.9C57.7446 65.97 57.6562 66.055 57.5896 66.155C57.5262 66.255 57.4946 66.3767 57.4946 66.52C57.4946 66.66 57.5296 66.79 57.5996 66.91C57.6696 67.0267 57.7762 67.12 57.9196 67.19C58.0629 67.26 58.2462 67.295 58.4696 67.295Z" fill="#1228A5"/>
<path d="M51 24.5H82.3333C82.8856 24.5 83.3333 24.9477 83.3333 25.5C83.3333 26.0523 82.8856 26.5 82.3333 26.5H51V24.5Z" fill="#1228A5"/>
<rect x="83.3334" y="25" width="32.3333" height="1" fill="black" fill-opacity="0.3"/>
<rect x="115.667" y="12" width="27" height="27" rx="13.5" fill="white"/>
<rect x="116.167" y="12.5" width="26" height="26" rx="13" stroke="black" stroke-opacity="0.3"/>
<path d="M133.581 18.9668C133.987 18.9672 134.377 19.1286 134.664 19.416L135.458 20.209L135.558 20.3145C135.783 20.5675 135.956 20.8636 136.065 21.1855C136.19 21.5535 136.229 21.9455 136.179 22.3307C136.128 22.7161 135.989 23.0851 135.773 23.4082C135.617 23.6419 135.423 23.8463 135.2 24.0156V30.9668H135.593C135.888 30.9668 136.127 31.2055 136.127 31.5C136.127 31.7945 135.888 32.0332 135.593 32.0332H122.74C122.445 32.0331 122.207 31.7945 122.207 31.5C122.207 31.2055 122.445 30.9669 122.74 30.9668H123.133V24.015C122.911 23.8454 122.717 23.6406 122.561 23.4069C122.345 23.0839 122.207 22.7156 122.156 22.3307C122.106 21.9458 122.145 21.554 122.269 21.1862C122.394 20.8185 122.601 20.4845 122.875 20.2096L123.668 19.416C123.956 19.1288 124.346 18.9669 124.752 18.9668H133.581ZM130.7 30.9668H132.633V26.5332H130.7V30.9668ZM125.7 28.9668H128.133V26.5332H125.7V28.9668ZM124.752 20.0332C124.629 20.0332 124.51 20.082 124.422 20.1693L123.63 20.9629C123.471 21.1221 123.351 21.3157 123.279 21.5286C123.207 21.7416 123.184 21.9685 123.214 22.1914C123.243 22.4144 123.323 22.628 123.448 22.8151C123.573 23.0019 123.738 23.1581 123.933 23.2708C124.226 23.4399 124.569 23.502 124.903 23.4473C125.237 23.3925 125.543 23.224 125.767 22.9701L125.807 22.929C125.905 22.8396 126.033 22.789 126.167 22.7891C126.32 22.7891 126.466 22.8557 126.567 22.9707C126.705 23.1266 126.873 23.2517 127.063 23.3372C127.252 23.4228 127.458 23.467 127.666 23.4668C128.104 23.4667 128.497 23.275 128.767 22.9694C128.868 22.8547 129.014 22.789 129.167 22.7891C129.32 22.7892 129.466 22.8557 129.567 22.9707C129.705 23.1266 129.873 23.2517 130.063 23.3372C130.252 23.4228 130.458 23.467 130.666 23.4668C131.104 23.4667 131.497 23.2753 131.767 22.9701L131.807 22.9297C131.905 22.8403 132.033 22.7897 132.167 22.7897C132.32 22.7898 132.465 22.856 132.567 22.9707C132.791 23.2246 133.096 23.3932 133.43 23.4479C133.764 23.5026 134.107 23.44 134.4 23.2708C134.595 23.1583 134.761 23.0022 134.886 22.8151C135.011 22.6281 135.091 22.415 135.121 22.1921C135.15 21.969 135.128 21.7417 135.056 21.5286C134.983 21.3158 134.863 21.1225 134.704 20.9635L133.91 20.1699C133.844 20.1044 133.761 20.0603 133.671 20.0423L133.58 20.0332H124.752ZM129.2 29C129.2 29.274 129.091 29.5367 128.897 29.7305C128.704 29.9242 128.441 30.0331 128.167 30.0332H125.667C125.096 30.0332 124.633 29.5706 124.633 29V26.5C124.633 26.226 124.742 25.9633 124.936 25.7695L125.012 25.7005C125.196 25.55 125.427 25.4668 125.667 25.4668H128.167C128.407 25.4669 128.638 25.5499 128.822 25.7005L128.897 25.7695L128.966 25.8451C129.116 26.029 129.2 26.2601 129.2 26.5V29ZM133.7 30.9668H134.133V24.4902C133.846 24.544 133.55 24.5485 133.257 24.5007C132.86 24.4356 132.488 24.2755 132.168 24.0404C131.784 24.3236 131.316 24.5014 130.808 24.5293L130.667 24.5332C130.307 24.5335 129.952 24.4572 129.624 24.3092C129.462 24.236 129.309 24.1458 129.166 24.041C128.782 24.3238 128.315 24.5014 127.808 24.5293L127.667 24.5332C127.307 24.5335 126.952 24.4572 126.624 24.3092C126.461 24.2357 126.307 24.1451 126.164 24.0397C125.844 24.2747 125.473 24.4349 125.076 24.5C124.784 24.548 124.487 24.5427 124.2 24.4889V30.9668H129.633V26.5C129.633 26.226 129.742 25.9633 129.936 25.7695L130.012 25.7005C130.196 25.55 130.427 25.4668 130.667 25.4668H132.667C132.907 25.4669 133.138 25.5499 133.322 25.7005L133.397 25.7695L133.466 25.8451C133.616 26.029 133.7 26.2601 133.7 26.5V30.9668Z" fill="black" fill-opacity="0.5"/>
<path d="M110.556 54.15C110.046 54.15 109.586 54.0633 109.176 53.89C108.77 53.7167 108.433 53.47 108.166 53.15C107.903 52.8267 107.731 52.445 107.651 52.005L108.571 51.86C108.688 52.3133 108.93 52.6683 109.296 52.925C109.666 53.1783 110.101 53.305 110.601 53.305C110.925 53.305 111.216 53.255 111.476 53.155C111.74 53.0517 111.948 52.905 112.101 52.715C112.255 52.525 112.331 52.3 112.331 52.04C112.331 51.88 112.303 51.7433 112.246 51.63C112.193 51.5133 112.118 51.415 112.021 51.335C111.928 51.2517 111.821 51.1817 111.701 51.125C111.581 51.0683 111.456 51.0217 111.326 50.985L109.491 50.44C109.291 50.38 109.098 50.305 108.911 50.215C108.725 50.1217 108.558 50.0067 108.411 49.87C108.265 49.73 108.148 49.5633 108.061 49.37C107.975 49.1733 107.931 48.9417 107.931 48.675C107.931 48.2483 108.041 47.885 108.261 47.585C108.485 47.2817 108.786 47.05 109.166 46.89C109.546 46.73 109.975 46.6517 110.451 46.655C110.935 46.6583 111.366 46.745 111.746 46.915C112.13 47.0817 112.446 47.3217 112.696 47.635C112.95 47.9483 113.12 48.3233 113.206 48.76L112.261 48.925C112.211 48.6317 112.1 48.38 111.926 48.17C111.756 47.9567 111.543 47.7933 111.286 47.68C111.03 47.5633 110.748 47.5033 110.441 47.5C110.148 47.4967 109.883 47.5433 109.646 47.64C109.41 47.7367 109.221 47.8717 109.081 48.045C108.941 48.215 108.871 48.4117 108.871 48.635C108.871 48.855 108.935 49.0333 109.061 49.17C109.188 49.3033 109.343 49.41 109.526 49.49C109.713 49.5667 109.895 49.63 110.071 49.68L111.441 50.075C111.598 50.1183 111.778 50.1783 111.981 50.255C112.188 50.3317 112.388 50.44 112.581 50.58C112.775 50.7167 112.935 50.9 113.061 51.13C113.188 51.3567 113.251 51.6433 113.251 51.99C113.251 52.3367 113.181 52.645 113.041 52.915C112.905 53.185 112.713 53.4117 112.466 53.595C112.22 53.775 111.933 53.9117 111.606 54.005C111.28 54.1017 110.93 54.15 110.556 54.15ZM116.35 54.14C116.004 54.14 115.705 54.085 115.455 53.975C115.209 53.865 115.004 53.7183 114.84 53.535C114.677 53.3517 114.549 53.1483 114.455 52.925C114.362 52.7017 114.295 52.4733 114.255 52.24C114.219 52.0067 114.2 51.7883 114.2 51.585V48.6H115.1V51.305C115.1 51.5583 115.124 51.8033 115.17 52.04C115.217 52.2767 115.295 52.49 115.405 52.68C115.519 52.87 115.669 53.02 115.855 53.13C116.045 53.24 116.282 53.295 116.565 53.295C116.789 53.295 116.992 53.2567 117.175 53.18C117.359 53.1033 117.515 52.99 117.645 52.84C117.775 52.6867 117.875 52.4933 117.945 52.26C118.015 52.0267 118.05 51.755 118.05 51.445L118.635 51.625C118.635 52.145 118.54 52.5933 118.35 52.97C118.164 53.3467 117.899 53.6367 117.555 53.84C117.215 54.04 116.814 54.14 116.35 54.14ZM118.15 54V52.555H118.05V48.6H118.945V54H118.15ZM122.62 54.15C122.073 54.15 121.608 54.0283 121.225 53.785C120.845 53.5383 120.555 53.2 120.355 52.77C120.155 52.34 120.052 51.85 120.045 51.3C120.052 50.7367 120.157 50.2417 120.36 49.815C120.567 49.385 120.862 49.05 121.245 48.81C121.628 48.57 122.09 48.45 122.63 48.45C123.2 48.45 123.69 48.59 124.1 48.87C124.513 49.15 124.79 49.5333 124.93 50.02L124.05 50.285C123.937 49.9717 123.752 49.7283 123.495 49.555C123.242 49.3817 122.95 49.295 122.62 49.295C122.25 49.295 121.945 49.3817 121.705 49.555C121.465 49.725 121.287 49.9617 121.17 50.265C121.053 50.565 120.993 50.91 120.99 51.3C120.997 51.9 121.135 52.385 121.405 52.755C121.678 53.1217 122.083 53.305 122.62 53.305C122.973 53.305 123.267 53.225 123.5 53.065C123.733 52.9017 123.91 52.6667 124.03 52.36L124.93 52.595C124.743 53.0983 124.452 53.4833 124.055 53.75C123.658 54.0167 123.18 54.15 122.62 54.15ZM128.001 54.14C127.654 54.14 127.356 54.085 127.106 53.975C126.859 53.865 126.654 53.7183 126.491 53.535C126.327 53.3517 126.199 53.1483 126.106 52.925C126.012 52.7017 125.946 52.4733 125.906 52.24C125.869 52.0067 125.851 51.7883 125.851 51.585V48.6H126.751V51.305C126.751 51.5583 126.774 51.8033 126.821 52.04C126.867 52.2767 126.946 52.49 127.056 52.68C127.169 52.87 127.319 53.02 127.506 53.13C127.696 53.24 127.932 53.295 128.216 53.295C128.439 53.295 128.642 53.2567 128.826 53.18C129.009 53.1033 129.166 52.99 129.296 52.84C129.426 52.6867 129.526 52.4933 129.596 52.26C129.666 52.0267 129.701 51.755 129.701 51.445L130.286 51.625C130.286 52.145 130.191 52.5933 130.001 52.97C129.814 53.3467 129.549 53.6367 129.206 53.84C128.866 54.04 128.464 54.14 128.001 54.14ZM129.801 54V52.555H129.701V48.6H130.596V54H129.801ZM131.996 54V48.6H132.791V49.905L132.661 49.735C132.724 49.5683 132.806 49.415 132.906 49.275C133.009 49.135 133.124 49.02 133.251 48.93C133.391 48.8167 133.549 48.73 133.726 48.67C133.902 48.61 134.082 48.575 134.266 48.565C134.449 48.5517 134.621 48.5633 134.781 48.6V49.435C134.594 49.385 134.389 49.3717 134.166 49.395C133.942 49.4183 133.736 49.5 133.546 49.64C133.372 49.7633 133.237 49.9133 133.141 50.09C133.047 50.2667 132.982 50.4583 132.946 50.665C132.909 50.8683 132.891 51.0767 132.891 51.29V54H131.996ZM137.571 54.145C136.927 54.145 136.399 54.005 135.986 53.725C135.576 53.4417 135.324 53.0467 135.231 52.54L136.141 52.395C136.214 52.6883 136.382 52.9217 136.646 53.095C136.909 53.265 137.236 53.35 137.626 53.35C137.996 53.35 138.286 53.2733 138.496 53.12C138.706 52.9667 138.811 52.7583 138.811 52.495C138.811 52.3417 138.776 52.2183 138.706 52.125C138.636 52.0283 138.491 51.9383 138.271 51.855C138.054 51.7717 137.726 51.6717 137.286 51.555C136.809 51.4283 136.434 51.2967 136.161 51.16C135.887 51.0233 135.692 50.865 135.576 50.685C135.459 50.505 135.401 50.2867 135.401 50.03C135.401 49.7133 135.487 49.4367 135.661 49.2C135.834 48.96 136.076 48.775 136.386 48.645C136.699 48.515 137.062 48.45 137.476 48.45C137.886 48.45 138.252 48.515 138.576 48.645C138.899 48.775 139.159 48.96 139.356 49.2C139.556 49.4367 139.674 49.7133 139.711 50.03L138.801 50.195C138.757 49.905 138.617 49.6767 138.381 49.51C138.147 49.3433 137.846 49.255 137.476 49.245C137.126 49.2317 136.841 49.2933 136.621 49.43C136.404 49.5667 136.296 49.7517 136.296 49.985C136.296 50.115 136.336 50.2267 136.416 50.32C136.499 50.4133 136.651 50.5017 136.871 50.585C137.094 50.6683 137.417 50.7633 137.841 50.87C138.317 50.99 138.692 51.1217 138.966 51.265C139.242 51.405 139.439 51.5717 139.556 51.765C139.672 51.955 139.731 52.19 139.731 52.47C139.731 52.99 139.539 53.4 139.156 53.7C138.772 53.9967 138.244 54.145 137.571 54.145ZM142.368 54.15C141.965 54.15 141.627 54.0767 141.353 53.93C141.083 53.78 140.878 53.5833 140.738 53.34C140.602 53.0967 140.533 52.83 140.533 52.54C140.533 52.2567 140.587 52.0117 140.693 51.805C140.803 51.595 140.957 51.4217 141.153 51.285C141.35 51.145 141.585 51.035 141.858 50.955C142.115 50.885 142.402 50.825 142.718 50.775C143.038 50.7217 143.362 50.6733 143.688 50.63C144.015 50.5867 144.32 50.545 144.603 50.505L144.283 50.69C144.293 50.21 144.197 49.855 143.993 49.625C143.793 49.395 143.447 49.28 142.953 49.28C142.627 49.28 142.34 49.355 142.093 49.505C141.85 49.6517 141.678 49.8917 141.578 50.225L140.733 49.97C140.863 49.4967 141.115 49.125 141.488 48.855C141.862 48.585 142.353 48.45 142.963 48.45C143.453 48.45 143.873 48.5383 144.223 48.715C144.577 48.8883 144.83 49.1517 144.983 49.505C145.06 49.6717 145.108 49.8533 145.128 50.05C145.148 50.2433 145.158 50.4467 145.158 50.66V54H144.368V52.705L144.553 52.825C144.35 53.2617 144.065 53.5917 143.698 53.815C143.335 54.0383 142.892 54.15 142.368 54.15ZM142.503 53.405C142.823 53.405 143.1 53.3483 143.333 53.235C143.57 53.1183 143.76 52.9667 143.903 52.78C144.047 52.59 144.14 52.3833 144.183 52.16C144.233 51.9933 144.26 51.8083 144.263 51.605C144.27 51.3983 144.273 51.24 144.273 51.13L144.583 51.265C144.293 51.305 144.008 51.3433 143.728 51.38C143.448 51.4167 143.183 51.4567 142.933 51.5C142.683 51.54 142.458 51.5883 142.258 51.645C142.112 51.6917 141.973 51.7517 141.843 51.825C141.717 51.8983 141.613 51.9933 141.533 52.11C141.457 52.2233 141.418 52.365 141.418 52.535C141.418 52.6817 141.455 52.8217 141.528 52.955C141.605 53.0883 141.722 53.1967 141.878 53.28C142.038 53.3633 142.247 53.405 142.503 53.405ZM146.558 54V46.65H147.448V54H146.558ZM148.849 55.12L148.904 54.705C149.044 54.715 149.149 54.6883 149.219 54.625C149.289 54.5617 149.334 54.475 149.354 54.365C149.374 54.255 149.377 54.1333 149.364 54H148.849V52.87H149.829V54.15C149.829 54.5 149.742 54.7633 149.569 54.94C149.399 55.1167 149.159 55.1767 148.849 55.12ZM101.768 68V62.305C101.768 62.165 101.775 62.0233 101.788 61.88C101.802 61.7333 101.832 61.5917 101.878 61.455C101.925 61.315 102.002 61.1867 102.108 61.07C102.232 60.9333 102.367 60.8367 102.513 60.78C102.66 60.72 102.808 60.6833 102.958 60.67C103.112 60.6567 103.257 60.65 103.393 60.65H104.078V61.39H103.443C103.18 61.39 102.983 61.455 102.853 61.585C102.723 61.7117 102.658 61.905 102.658 62.165V68H101.768ZM100.853 63.335V62.6H104.078V63.335H100.853ZM107.021 68.15C106.491 68.15 106.028 68.0333 105.631 67.8C105.238 67.5633 104.931 67.235 104.711 66.815C104.491 66.3917 104.381 65.8983 104.381 65.335C104.381 64.745 104.489 64.235 104.706 63.805C104.923 63.3717 105.224 63.0383 105.611 62.805C106.001 62.5683 106.458 62.45 106.981 62.45C107.524 62.45 107.986 62.575 108.366 62.825C108.749 63.075 109.036 63.4317 109.226 63.895C109.419 64.3583 109.503 64.91 109.476 65.55H108.576V65.23C108.566 64.5667 108.431 64.0717 108.171 63.745C107.911 63.415 107.524 63.25 107.011 63.25C106.461 63.25 106.043 63.4267 105.756 63.78C105.469 64.1333 105.326 64.64 105.326 65.3C105.326 65.9367 105.469 66.43 105.756 66.78C106.043 67.13 106.451 67.305 106.981 67.305C107.338 67.305 107.648 67.2233 107.911 67.06C108.174 66.8967 108.381 66.6617 108.531 66.355L109.386 66.65C109.176 67.1267 108.859 67.4967 108.436 67.76C108.016 68.02 107.544 68.15 107.021 68.15ZM105.026 65.55V64.835H109.016V65.55H105.026ZM112.864 68.15C112.318 68.15 111.853 68.0283 111.469 67.785C111.089 67.5383 110.799 67.2 110.599 66.77C110.399 66.34 110.296 65.85 110.289 65.3C110.296 64.7367 110.401 64.2417 110.604 63.815C110.811 63.385 111.106 63.05 111.489 62.81C111.873 62.57 112.334 62.45 112.874 62.45C113.444 62.45 113.934 62.59 114.344 62.87C114.758 63.15 115.034 63.5333 115.174 64.02L114.294 64.285C114.181 63.9717 113.996 63.7283 113.739 63.555C113.486 63.3817 113.194 63.295 112.864 63.295C112.494 63.295 112.189 63.3817 111.949 63.555C111.709 63.725 111.531 63.9617 111.414 64.265C111.298 64.565 111.238 64.91 111.234 65.3C111.241 65.9 111.379 66.385 111.649 66.755C111.923 67.1217 112.328 67.305 112.864 67.305C113.218 67.305 113.511 67.225 113.744 67.065C113.978 66.9017 114.154 66.6667 114.274 66.36L115.174 66.595C114.988 67.0983 114.696 67.4833 114.299 67.75C113.903 68.0167 113.424 68.15 112.864 68.15ZM120.04 68V65.295C120.04 65.0383 120.016 64.7917 119.97 64.555C119.926 64.3183 119.848 64.1067 119.735 63.92C119.625 63.73 119.475 63.58 119.285 63.47C119.098 63.36 118.861 63.305 118.575 63.305C118.351 63.305 118.148 63.3433 117.965 63.42C117.785 63.4933 117.63 63.6067 117.5 63.76C117.37 63.9133 117.268 64.1067 117.195 64.34C117.125 64.57 117.09 64.8417 117.09 65.155L116.505 64.975C116.505 64.4517 116.598 64.0033 116.785 63.63C116.975 63.2533 117.24 62.965 117.58 62.765C117.923 62.5617 118.326 62.46 118.79 62.46C119.14 62.46 119.438 62.515 119.685 62.625C119.931 62.735 120.136 62.8817 120.3 63.065C120.463 63.245 120.591 63.4483 120.685 63.675C120.778 63.8983 120.843 64.1267 120.88 64.36C120.92 64.59 120.94 64.8083 120.94 65.015V68H120.04ZM116.19 68V60.8H116.99V64.775H117.09V68H116.19ZM123.775 68.15C123.371 68.15 123.033 68.0767 122.76 67.93C122.49 67.78 122.285 67.5833 122.145 67.34C122.008 67.0967 121.94 66.83 121.94 66.54C121.94 66.2567 121.993 66.0117 122.1 65.805C122.21 65.595 122.363 65.4217 122.56 65.285C122.756 65.145 122.991 65.035 123.265 64.955C123.521 64.885 123.808 64.825 124.125 64.775C124.445 64.7217 124.768 64.6733 125.095 64.63C125.421 64.5867 125.726 64.545 126.01 64.505L125.69 64.69C125.7 64.21 125.603 63.855 125.4 63.625C125.2 63.395 124.853 63.28 124.36 63.28C124.033 63.28 123.746 63.355 123.5 63.505C123.256 63.6517 123.085 63.8917 122.985 64.225L122.14 63.97C122.27 63.4967 122.521 63.125 122.895 62.855C123.268 62.585 123.76 62.45 124.37 62.45C124.86 62.45 125.28 62.5383 125.63 62.715C125.983 62.8883 126.236 63.1517 126.39 63.505C126.466 63.6717 126.515 63.8533 126.535 64.05C126.555 64.2433 126.565 64.4467 126.565 64.66V68H125.775V66.705L125.96 66.825C125.756 67.2617 125.471 67.5917 125.105 67.815C124.741 68.0383 124.298 68.15 123.775 68.15ZM123.91 67.405C124.23 67.405 124.506 67.3483 124.74 67.235C124.976 67.1183 125.166 66.9667 125.31 66.78C125.453 66.59 125.546 66.3833 125.59 66.16C125.64 65.9933 125.666 65.8083 125.67 65.605C125.676 65.3983 125.68 65.24 125.68 65.13L125.99 65.265C125.7 65.305 125.415 65.3433 125.135 65.38C124.855 65.4167 124.59 65.4567 124.34 65.5C124.09 65.54 123.865 65.5883 123.665 65.645C123.518 65.6917 123.38 65.7517 123.25 65.825C123.123 65.8983 123.02 65.9933 122.94 66.11C122.863 66.2233 122.825 66.365 122.825 66.535C122.825 66.6817 122.861 66.8217 122.935 66.955C123.011 67.0883 123.128 67.1967 123.285 67.28C123.445 67.3633 123.653 67.405 123.91 67.405ZM130.617 70.4L131.662 67.56L131.677 68.4L129.317 62.6H130.252L132.102 67.265H131.782L133.517 62.6H134.422L131.482 70.4H130.617ZM141.094 68V65.295C141.094 65.0383 141.071 64.7917 141.024 64.555C140.981 64.3183 140.903 64.1067 140.789 63.92C140.679 63.73 140.529 63.58 140.339 63.47C140.153 63.36 139.916 63.305 139.629 63.305C139.406 63.305 139.203 63.3433 139.019 63.42C138.839 63.4933 138.684 63.6067 138.554 63.76C138.424 63.9133 138.323 64.1067 138.249 64.34C138.179 64.57 138.144 64.8417 138.144 65.155L137.559 64.975C137.559 64.4517 137.653 64.0033 137.839 63.63C138.029 63.2533 138.294 62.965 138.634 62.765C138.978 62.5617 139.381 62.46 139.844 62.46C140.194 62.46 140.493 62.515 140.739 62.625C140.986 62.735 141.191 62.8817 141.354 63.065C141.518 63.245 141.646 63.4483 141.739 63.675C141.833 63.8983 141.898 64.1267 141.934 64.36C141.974 64.59 141.994 64.8083 141.994 65.015V68H141.094ZM137.244 68V60.8H138.044V64.775H138.144V68H137.244ZM145.594 68.15C145.058 68.15 144.594 68.0283 144.204 67.785C143.818 67.5417 143.519 67.205 143.309 66.775C143.099 66.345 142.994 65.8517 142.994 65.295C142.994 64.7283 143.101 64.2317 143.314 63.805C143.528 63.3783 143.829 63.0467 144.219 62.81C144.609 62.57 145.068 62.45 145.594 62.45C146.134 62.45 146.599 62.5717 146.989 62.815C147.379 63.055 147.678 63.39 147.884 63.82C148.094 64.2467 148.199 64.7383 148.199 65.295C148.199 65.8583 148.094 66.355 147.884 66.785C147.674 67.2117 147.374 67.5467 146.984 67.79C146.594 68.03 146.131 68.15 145.594 68.15ZM145.594 67.305C146.154 67.305 146.571 67.1183 146.844 66.745C147.118 66.3717 147.254 65.8883 147.254 65.295C147.254 64.685 147.116 64.2 146.839 63.84C146.563 63.4767 146.148 63.295 145.594 63.295C145.218 63.295 144.908 63.38 144.664 63.55C144.421 63.72 144.239 63.955 144.119 64.255C143.999 64.555 143.939 64.9017 143.939 65.295C143.939 65.9017 144.079 66.3883 144.359 66.755C144.639 67.1217 145.051 67.305 145.594 67.305ZM149.3 68V62.6H150.095V63.905L149.965 63.735C150.029 63.5683 150.11 63.415 150.21 63.275C150.314 63.135 150.429 63.02 150.555 62.93C150.695 62.8167 150.854 62.73 151.03 62.67C151.207 62.61 151.387 62.575 151.57 62.565C151.754 62.5517 151.925 62.5633 152.085 62.6V63.435C151.899 63.385 151.694 63.3717 151.47 63.395C151.247 63.4183 151.04 63.5 150.85 63.64C150.677 63.7633 150.542 63.9133 150.445 64.09C150.352 64.2667 150.287 64.4583 150.25 64.665C150.214 64.8683 150.195 65.0767 150.195 65.29V68H149.3ZM154.39 68.15C153.987 68.15 153.648 68.0767 153.375 67.93C153.105 67.78 152.9 67.5833 152.76 67.34C152.623 67.0967 152.555 66.83 152.555 66.54C152.555 66.2567 152.608 66.0117 152.715 65.805C152.825 65.595 152.978 65.4217 153.175 65.285C153.372 65.145 153.607 65.035 153.88 64.955C154.137 64.885 154.423 64.825 154.74 64.775C155.06 64.7217 155.383 64.6733 155.71 64.63C156.037 64.5867 156.342 64.545 156.625 64.505L156.305 64.69C156.315 64.21 156.218 63.855 156.015 63.625C155.815 63.395 155.468 63.28 154.975 63.28C154.648 63.28 154.362 63.355 154.115 63.505C153.872 63.6517 153.7 63.8917 153.6 64.225L152.755 63.97C152.885 63.4967 153.137 63.125 153.51 62.855C153.883 62.585 154.375 62.45 154.985 62.45C155.475 62.45 155.895 62.5383 156.245 62.715C156.598 62.8883 156.852 63.1517 157.005 63.505C157.082 63.6717 157.13 63.8533 157.15 64.05C157.17 64.2433 157.18 64.4467 157.18 64.66V68H156.39V66.705L156.575 66.825C156.372 67.2617 156.087 67.5917 155.72 67.815C155.357 68.0383 154.913 68.15 154.39 68.15ZM154.525 67.405C154.845 67.405 155.122 67.3483 155.355 67.235C155.592 67.1183 155.782 66.9667 155.925 66.78C156.068 66.59 156.162 66.3833 156.205 66.16C156.255 65.9933 156.282 65.8083 156.285 65.605C156.292 65.3983 156.295 65.24 156.295 65.13L156.605 65.265C156.315 65.305 156.03 65.3433 155.75 65.38C155.47 65.4167 155.205 65.4567 154.955 65.5C154.705 65.54 154.48 65.5883 154.28 65.645C154.133 65.6917 153.995 65.7517 153.865 65.825C153.738 65.8983 153.635 65.9933 153.555 66.11C153.478 66.2233 153.44 66.365 153.44 66.535C153.44 66.6817 153.477 66.8217 153.55 66.955C153.627 67.0883 153.743 67.1967 153.9 67.28C154.06 67.3633 154.268 67.405 154.525 67.405Z" fill="black" fill-opacity="0.7"/>
<rect x="142.667" y="25" width="64.6667" height="1" fill="black" fill-opacity="0.3"/>
<rect x="207.333" y="12" width="27" height="27" rx="13.5" fill="white"/>
<rect x="207.833" y="12.5" width="26" height="26" rx="13" stroke="black" stroke-opacity="0.3"/>
<g clip-path="url(#clip0_59_19870)">
<path d="M220.833 28.6666C219.659 28.6666 218.594 29.1344 217.813 29.8945C218.672 30.4863 219.711 30.8333 220.833 30.8333C221.955 30.8333 222.994 30.486 223.853 29.8945C223.072 29.1347 222.008 28.6666 220.833 28.6666ZM226.167 25.5C226.167 22.5545 223.779 20.1666 220.833 20.1666C217.888 20.1666 215.5 22.5545 215.5 25.5C215.5 26.8426 215.997 28.0672 216.816 29.0052C217.842 27.974 219.263 27.3333 220.833 27.3333C222.404 27.3333 223.823 27.9743 224.849 29.0052C225.669 28.0672 226.167 26.8428 226.167 25.5ZM222.167 24C222.167 23.2636 221.57 22.6666 220.833 22.6666C220.097 22.6666 219.5 23.2636 219.5 24C219.5 24.7364 220.097 25.3333 220.833 25.3333C221.57 25.3333 222.167 24.7364 222.167 24ZM227.5 25.5C227.5 27.481 226.635 29.261 225.264 30.4811C224.087 31.5291 222.534 32.1666 220.833 32.1666C219.133 32.1666 217.58 31.5291 216.402 30.4811C215.032 29.261 214.167 27.481 214.167 25.5C214.167 21.8181 217.152 18.8333 220.833 18.8333C224.515 18.8333 227.5 21.8181 227.5 25.5ZM223.5 24C223.5 25.4727 222.306 26.6666 220.833 26.6666C219.361 26.6666 218.167 25.4727 218.167 24C218.167 22.5272 219.361 21.3333 220.833 21.3333C222.306 21.3333 223.5 22.5272 223.5 24Z" fill="black" fill-opacity="0.5"/>
</g>
<path d="M193.645 54V46.8H194.535V54H193.645ZM199.88 54V51.295C199.88 51.0383 199.857 50.7917 199.81 50.555C199.767 50.3183 199.689 50.1067 199.575 49.92C199.465 49.73 199.315 49.58 199.125 49.47C198.939 49.36 198.702 49.305 198.415 49.305C198.192 49.305 197.989 49.3433 197.805 49.42C197.625 49.4933 197.47 49.6067 197.34 49.76C197.21 49.9133 197.109 50.1067 197.035 50.34C196.965 50.57 196.93 50.8417 196.93 51.155L196.345 50.975C196.345 50.4517 196.439 50.0033 196.625 49.63C196.815 49.2533 197.08 48.965 197.42 48.765C197.764 48.5617 198.167 48.46 198.63 48.46C198.98 48.46 199.279 48.515 199.525 48.625C199.772 48.735 199.977 48.8817 200.14 49.065C200.304 49.245 200.432 49.4483 200.525 49.675C200.619 49.8983 200.684 50.1267 200.72 50.36C200.76 50.59 200.78 50.8083 200.78 51.015V54H199.88ZM196.03 54V48.6H196.83V50.045H196.93V54H196.03ZM202.595 54V48.305C202.595 48.165 202.602 48.0233 202.615 47.88C202.629 47.7333 202.659 47.5917 202.705 47.455C202.752 47.315 202.829 47.1867 202.935 47.07C203.059 46.9333 203.194 46.8367 203.34 46.78C203.487 46.72 203.635 46.6833 203.785 46.67C203.939 46.6567 204.084 46.65 204.22 46.65H204.905V47.39H204.27C204.007 47.39 203.81 47.455 203.68 47.585C203.55 47.7117 203.485 47.905 203.485 48.165V54H202.595ZM201.68 49.335V48.6H204.905V49.335H201.68ZM207.808 54.15C207.271 54.15 206.808 54.0283 206.418 53.785C206.031 53.5417 205.733 53.205 205.523 52.775C205.313 52.345 205.208 51.8517 205.208 51.295C205.208 50.7283 205.315 50.2317 205.528 49.805C205.741 49.3783 206.043 49.0467 206.433 48.81C206.823 48.57 207.281 48.45 207.808 48.45C208.348 48.45 208.813 48.5717 209.203 48.815C209.593 49.055 209.891 49.39 210.098 49.82C210.308 50.2467 210.413 50.7383 210.413 51.295C210.413 51.8583 210.308 52.355 210.098 52.785C209.888 53.2117 209.588 53.5467 209.198 53.79C208.808 54.03 208.345 54.15 207.808 54.15ZM207.808 53.305C208.368 53.305 208.785 53.1183 209.058 52.745C209.331 52.3717 209.468 51.8883 209.468 51.295C209.468 50.685 209.33 50.2 209.053 49.84C208.776 49.4767 208.361 49.295 207.808 49.295C207.431 49.295 207.121 49.38 206.878 49.55C206.635 49.72 206.453 49.955 206.333 50.255C206.213 50.555 206.153 50.9017 206.153 51.295C206.153 51.9017 206.293 52.3883 206.573 52.755C206.853 53.1217 207.265 53.305 207.808 53.305ZM211.514 54V48.6H212.309V49.905L212.179 49.735C212.242 49.5683 212.324 49.415 212.424 49.275C212.527 49.135 212.642 49.02 212.769 48.93C212.909 48.8167 213.067 48.73 213.244 48.67C213.421 48.61 213.601 48.575 213.784 48.565C213.967 48.5517 214.139 48.5633 214.299 48.6V49.435C214.112 49.385 213.907 49.3717 213.684 49.395C213.461 49.4183 213.254 49.5 213.064 49.64C212.891 49.7633 212.756 49.9133 212.659 50.09C212.566 50.2667 212.501 50.4583 212.464 50.665C212.427 50.8683 212.409 51.0767 212.409 51.29V54H211.514ZM221.699 54L221.704 50.545C221.704 50.1417 221.596 49.8267 221.379 49.6C221.166 49.37 220.888 49.255 220.544 49.255C220.344 49.255 220.154 49.3017 219.974 49.395C219.794 49.485 219.648 49.6283 219.534 49.825C219.421 50.0183 219.364 50.2667 219.364 50.57L218.894 50.38C218.888 49.9967 218.966 49.6617 219.129 49.375C219.296 49.085 219.523 48.86 219.809 48.7C220.096 48.54 220.419 48.46 220.779 48.46C221.343 48.46 221.786 48.6317 222.109 48.975C222.433 49.315 222.594 49.7733 222.594 50.35L222.589 54H221.699ZM215.239 54V48.6H216.034V50.045H216.134V54H215.239ZM218.474 54L218.479 50.58C218.479 50.1667 218.373 49.8433 218.159 49.61C217.946 49.3733 217.663 49.255 217.309 49.255C216.959 49.255 216.676 49.375 216.459 49.615C216.243 49.855 216.134 50.1733 216.134 50.57L215.664 50.29C215.664 49.94 215.748 49.6267 215.914 49.35C216.081 49.0733 216.308 48.8567 216.594 48.7C216.881 48.54 217.206 48.46 217.569 48.46C217.933 48.46 218.249 48.5367 218.519 48.69C218.789 48.8433 218.998 49.0633 219.144 49.35C219.291 49.6333 219.364 49.9717 219.364 50.365L219.359 54H218.474ZM225.432 54.15C225.028 54.15 224.69 54.0767 224.417 53.93C224.147 53.78 223.942 53.5833 223.802 53.34C223.665 53.0967 223.597 52.83 223.597 52.54C223.597 52.2567 223.65 52.0117 223.757 51.805C223.867 51.595 224.02 51.4217 224.217 51.285C224.413 51.145 224.648 51.035 224.922 50.955C225.178 50.885 225.465 50.825 225.782 50.775C226.102 50.7217 226.425 50.6733 226.752 50.63C227.078 50.5867 227.383 50.545 227.667 50.505L227.347 50.69C227.357 50.21 227.26 49.855 227.057 49.625C226.857 49.395 226.51 49.28 226.017 49.28C225.69 49.28 225.403 49.355 225.157 49.505C224.913 49.6517 224.742 49.8917 224.642 50.225L223.797 49.97C223.927 49.4967 224.178 49.125 224.552 48.855C224.925 48.585 225.417 48.45 226.027 48.45C226.517 48.45 226.937 48.5383 227.287 48.715C227.64 48.8883 227.893 49.1517 228.047 49.505C228.123 49.6717 228.172 49.8533 228.192 50.05C228.212 50.2433 228.222 50.4467 228.222 50.66V54H227.432V52.705L227.617 52.825C227.413 53.2617 227.128 53.5917 226.762 53.815C226.398 54.0383 225.955 54.15 225.432 54.15ZM225.567 53.405C225.887 53.405 226.163 53.3483 226.397 53.235C226.633 53.1183 226.823 52.9667 226.967 52.78C227.11 52.59 227.203 52.3833 227.247 52.16C227.297 51.9933 227.323 51.8083 227.327 51.605C227.333 51.3983 227.337 51.24 227.337 51.13L227.647 51.265C227.357 51.305 227.072 51.3433 226.792 51.38C226.512 51.4167 226.247 51.4567 225.997 51.5C225.747 51.54 225.522 51.5883 225.322 51.645C225.175 51.6917 225.037 51.7517 224.907 51.825C224.78 51.8983 224.677 51.9933 224.597 52.11C224.52 52.2233 224.482 52.365 224.482 52.535C224.482 52.6817 224.518 52.8217 224.592 52.955C224.668 53.0883 224.785 53.1967 224.942 53.28C225.102 53.3633 225.31 53.405 225.567 53.405ZM231.797 54.15C231.25 54.15 230.785 54.0283 230.402 53.785C230.022 53.5383 229.732 53.2 229.532 52.77C229.332 52.34 229.228 51.85 229.222 51.3C229.228 50.7367 229.333 50.2417 229.537 49.815C229.743 49.385 230.038 49.05 230.422 48.81C230.805 48.57 231.267 48.45 231.807 48.45C232.377 48.45 232.867 48.59 233.277 48.87C233.69 49.15 233.967 49.5333 234.107 50.02L233.227 50.285C233.113 49.9717 232.928 49.7283 232.672 49.555C232.418 49.3817 232.127 49.295 231.797 49.295C231.427 49.295 231.122 49.3817 230.882 49.555C230.642 49.725 230.463 49.9617 230.347 50.265C230.23 50.565 230.17 50.91 230.167 51.3C230.173 51.9 230.312 52.385 230.582 52.755C230.855 53.1217 231.26 53.305 231.797 53.305C232.15 53.305 232.443 53.225 232.677 53.065C232.91 52.9017 233.087 52.6667 233.207 52.36L234.107 52.595C233.92 53.0983 233.628 53.4833 233.232 53.75C232.835 54.0167 232.357 54.15 231.797 54.15ZM235.081 47.645V46.725H235.971V47.645H235.081ZM235.081 54V48.6H235.971V54H235.081ZM240.136 47.775H239.411L240.066 46.125H240.791L240.136 47.775ZM239.771 54.15C239.234 54.15 238.771 54.0283 238.381 53.785C237.994 53.5417 237.696 53.205 237.486 52.775C237.276 52.345 237.171 51.8517 237.171 51.295C237.171 50.7283 237.278 50.2317 237.491 49.805C237.704 49.3783 238.006 49.0467 238.396 48.81C238.786 48.57 239.244 48.45 239.771 48.45C240.311 48.45 240.776 48.5717 241.166 48.815C241.556 49.055 241.854 49.39 242.061 49.82C242.271 50.2467 242.376 50.7383 242.376 51.295C242.376 51.8583 242.271 52.355 242.061 52.785C241.851 53.2117 241.551 53.5467 241.161 53.79C240.771 54.03 240.308 54.15 239.771 54.15ZM239.771 53.305C240.331 53.305 240.748 53.1183 241.021 52.745C241.294 52.3717 241.431 51.8883 241.431 51.295C241.431 50.685 241.293 50.2 241.016 49.84C240.739 49.4767 240.324 49.295 239.771 49.295C239.394 49.295 239.084 49.38 238.841 49.55C238.598 49.72 238.416 49.955 238.296 50.255C238.176 50.555 238.116 50.9017 238.116 51.295C238.116 51.9017 238.256 52.3883 238.536 52.755C238.816 53.1217 239.228 53.305 239.771 53.305ZM247.322 54V51.295C247.322 51.0383 247.298 50.7917 247.252 50.555C247.208 50.3183 247.13 50.1067 247.017 49.92C246.907 49.73 246.757 49.58 246.567 49.47C246.38 49.36 246.143 49.305 245.857 49.305C245.633 49.305 245.43 49.3433 245.247 49.42C245.067 49.4933 244.912 49.6067 244.782 49.76C244.652 49.9133 244.55 50.1067 244.477 50.34C244.407 50.57 244.372 50.8417 244.372 51.155L243.787 50.975C243.787 50.4517 243.88 50.0033 244.067 49.63C244.257 49.2533 244.522 48.965 244.862 48.765C245.205 48.5617 245.608 48.46 246.072 48.46C246.422 48.46 246.72 48.515 246.967 48.625C247.213 48.735 247.418 48.8817 247.582 49.065C247.745 49.245 247.873 49.4483 247.967 49.675C248.06 49.8983 248.125 50.1267 248.162 50.36C248.202 50.59 248.222 50.8083 248.222 51.015V54H247.322ZM243.472 54V48.6H244.272V50.045H244.372V54H243.472ZM194.864 68.15C194.361 68.15 193.929 68.025 193.569 67.775C193.209 67.5217 192.931 67.18 192.734 66.75C192.541 66.32 192.444 65.835 192.444 65.295C192.444 64.755 192.541 64.27 192.734 63.84C192.931 63.41 193.209 63.0717 193.569 62.825C193.929 62.575 194.359 62.45 194.859 62.45C195.369 62.45 195.798 62.5733 196.144 62.82C196.491 63.0667 196.753 63.405 196.929 63.835C197.109 64.265 197.199 64.7517 197.199 65.295C197.199 65.8317 197.109 66.3167 196.929 66.75C196.753 67.18 196.491 67.5217 196.144 67.775C195.798 68.025 195.371 68.15 194.864 68.15ZM194.974 67.335C195.338 67.335 195.636 67.2483 195.869 67.075C196.103 66.8983 196.274 66.6567 196.384 66.35C196.498 66.04 196.554 65.6883 196.554 65.295C196.554 64.895 196.498 64.5433 196.384 64.24C196.274 63.9333 196.104 63.695 195.874 63.525C195.644 63.3517 195.353 63.265 194.999 63.265C194.633 63.265 194.329 63.355 194.089 63.535C193.853 63.715 193.676 63.9583 193.559 64.265C193.446 64.5717 193.389 64.915 193.389 65.295C193.389 65.6783 193.448 66.025 193.564 66.335C193.681 66.6417 193.856 66.885 194.089 67.065C194.326 67.245 194.621 67.335 194.974 67.335ZM196.554 68V64.025H196.454V60.8H197.349V68H196.554ZM201.09 68.15C200.56 68.15 200.097 68.0333 199.7 67.8C199.307 67.5633 199 67.235 198.78 66.815C198.56 66.3917 198.45 65.8983 198.45 65.335C198.45 64.745 198.559 64.235 198.775 63.805C198.992 63.3717 199.294 63.0383 199.68 62.805C200.07 62.5683 200.527 62.45 201.05 62.45C201.594 62.45 202.055 62.575 202.435 62.825C202.819 63.075 203.105 63.4317 203.295 63.895C203.489 64.3583 203.572 64.91 203.545 65.55H202.645V65.23C202.635 64.5667 202.5 64.0717 202.24 63.745C201.98 63.415 201.594 63.25 201.08 63.25C200.53 63.25 200.112 63.4267 199.825 63.78C199.539 64.1333 199.395 64.64 199.395 65.3C199.395 65.9367 199.539 66.43 199.825 66.78C200.112 67.13 200.52 67.305 201.05 67.305C201.407 67.305 201.717 67.2233 201.98 67.06C202.244 66.8967 202.45 66.6617 202.6 66.355L203.455 66.65C203.245 67.1267 202.929 67.4967 202.505 67.76C202.085 68.02 201.614 68.15 201.09 68.15ZM199.095 65.55V64.835H203.085V65.55H199.095ZM204.758 68V60.65H205.648V68H204.758ZM211.631 68.15C211.124 68.15 210.697 68.025 210.351 67.775C210.004 67.5217 209.741 67.18 209.561 66.75C209.384 66.3167 209.296 65.8317 209.296 65.295C209.296 64.7517 209.384 64.265 209.561 63.835C209.741 63.405 210.004 63.0667 210.351 62.82C210.701 62.5733 211.129 62.45 211.636 62.45C212.136 62.45 212.566 62.575 212.926 62.825C213.289 63.0717 213.567 63.41 213.761 63.84C213.954 64.27 214.051 64.755 214.051 65.295C214.051 65.835 213.954 66.32 213.761 66.75C213.567 67.18 213.289 67.5217 212.926 67.775C212.566 68.025 212.134 68.15 211.631 68.15ZM209.146 70.4V62.6H209.941V66.575H210.041V70.4H209.146ZM211.521 67.335C211.877 67.335 212.172 67.245 212.406 67.065C212.639 66.885 212.814 66.6417 212.931 66.335C213.047 66.025 213.106 65.6783 213.106 65.295C213.106 64.915 213.047 64.5717 212.931 64.265C212.817 63.9583 212.641 63.715 212.401 63.535C212.164 63.355 211.862 63.265 211.496 63.265C211.146 63.265 210.856 63.3517 210.626 63.525C210.396 63.695 210.224 63.9333 210.111 64.24C209.997 64.5433 209.941 64.895 209.941 65.295C209.941 65.6883 209.996 66.04 210.106 66.35C210.219 66.6567 210.392 66.8983 210.626 67.075C210.859 67.2483 211.157 67.335 211.521 67.335ZM216.682 68.15C216.278 68.15 215.94 68.0767 215.667 67.93C215.397 67.78 215.192 67.5833 215.052 67.34C214.915 67.0967 214.847 66.83 214.847 66.54C214.847 66.2567 214.9 66.0117 215.007 65.805C215.117 65.595 215.27 65.4217 215.467 65.285C215.663 65.145 215.898 65.035 216.172 64.955C216.428 64.885 216.715 64.825 217.032 64.775C217.352 64.7217 217.675 64.6733 218.002 64.63C218.328 64.5867 218.633 64.545 218.917 64.505L218.597 64.69C218.607 64.21 218.51 63.855 218.307 63.625C218.107 63.395 217.76 63.28 217.267 63.28C216.94 63.28 216.653 63.355 216.407 63.505C216.163 63.6517 215.992 63.8917 215.892 64.225L215.047 63.97C215.177 63.4967 215.428 63.125 215.802 62.855C216.175 62.585 216.667 62.45 217.277 62.45C217.767 62.45 218.187 62.5383 218.537 62.715C218.89 62.8883 219.143 63.1517 219.297 63.505C219.373 63.6717 219.422 63.8533 219.442 64.05C219.462 64.2433 219.472 64.4467 219.472 64.66V68H218.682V66.705L218.867 66.825C218.663 67.2617 218.378 67.5917 218.012 67.815C217.648 68.0383 217.205 68.15 216.682 68.15ZM216.817 67.405C217.137 67.405 217.413 67.3483 217.647 67.235C217.883 67.1183 218.073 66.9667 218.217 66.78C218.36 66.59 218.453 66.3833 218.497 66.16C218.547 65.9933 218.573 65.8083 218.577 65.605C218.583 65.3983 218.587 65.24 218.587 65.13L218.897 65.265C218.607 65.305 218.322 65.3433 218.042 65.38C217.762 65.4167 217.497 65.4567 217.247 65.5C216.997 65.54 216.772 65.5883 216.572 65.645C216.425 65.6917 216.287 65.7517 216.157 65.825C216.03 65.8983 215.927 65.9933 215.847 66.11C215.77 66.2233 215.732 66.365 215.732 66.535C215.732 66.6817 215.768 66.8217 215.842 66.955C215.918 67.0883 216.035 67.1967 216.192 67.28C216.352 67.3633 216.56 67.405 216.817 67.405ZM223.047 68.15C222.5 68.15 222.035 68.0283 221.652 67.785C221.272 67.5383 220.982 67.2 220.782 66.77C220.582 66.34 220.478 65.85 220.472 65.3C220.478 64.7367 220.583 64.2417 220.787 63.815C220.993 63.385 221.288 63.05 221.672 62.81C222.055 62.57 222.517 62.45 223.057 62.45C223.627 62.45 224.117 62.59 224.527 62.87C224.94 63.15 225.217 63.5333 225.357 64.02L224.477 64.285C224.363 63.9717 224.178 63.7283 223.922 63.555C223.668 63.3817 223.377 63.295 223.047 63.295C222.677 63.295 222.372 63.3817 222.132 63.555C221.892 63.725 221.713 63.9617 221.597 64.265C221.48 64.565 221.42 64.91 221.417 65.3C221.423 65.9 221.562 66.385 221.832 66.755C222.105 67.1217 222.51 67.305 223.047 67.305C223.4 67.305 223.693 67.225 223.927 67.065C224.16 66.9017 224.337 66.6667 224.457 66.36L225.357 66.595C225.17 67.0983 224.878 67.4833 224.482 67.75C224.085 68.0167 223.607 68.15 223.047 68.15ZM226.331 61.645V60.725H227.221V61.645H226.331ZM226.331 68V62.6H227.221V68H226.331ZM231.061 68.15C230.531 68.15 230.068 68.0333 229.671 67.8C229.278 67.5633 228.971 67.235 228.751 66.815C228.531 66.3917 228.421 65.8983 228.421 65.335C228.421 64.745 228.529 64.235 228.746 63.805C228.963 63.3717 229.264 63.0383 229.651 62.805C230.041 62.5683 230.498 62.45 231.021 62.45C231.564 62.45 232.026 62.575 232.406 62.825C232.789 63.075 233.076 63.4317 233.266 63.895C233.459 64.3583 233.543 64.91 233.516 65.55H232.616V65.23C232.606 64.5667 232.471 64.0717 232.211 63.745C231.951 63.415 231.564 63.25 231.051 63.25C230.501 63.25 230.083 63.4267 229.796 63.78C229.509 64.1333 229.366 64.64 229.366 65.3C229.366 65.9367 229.509 66.43 229.796 66.78C230.083 67.13 230.491 67.305 231.021 67.305C231.378 67.305 231.688 67.2233 231.951 67.06C232.214 66.8967 232.421 66.6617 232.571 66.355L233.426 66.65C233.216 67.1267 232.899 67.4967 232.476 67.76C232.056 68.02 231.584 68.15 231.061 68.15ZM229.066 65.55V64.835H233.056V65.55H229.066ZM238.328 68V65.295C238.328 65.0383 238.304 64.7917 238.258 64.555C238.214 64.3183 238.136 64.1067 238.023 63.92C237.913 63.73 237.763 63.58 237.573 63.47C237.386 63.36 237.149 63.305 236.863 63.305C236.639 63.305 236.436 63.3433 236.253 63.42C236.073 63.4933 235.918 63.6067 235.788 63.76C235.658 63.9133 235.556 64.1067 235.483 64.34C235.413 64.57 235.378 64.8417 235.378 65.155L234.793 64.975C234.793 64.4517 234.886 64.0033 235.073 63.63C235.263 63.2533 235.528 62.965 235.868 62.765C236.211 62.5617 236.614 62.46 237.078 62.46C237.428 62.46 237.726 62.515 237.973 62.625C238.219 62.735 238.424 62.8817 238.588 63.065C238.751 63.245 238.879 63.4483 238.973 63.675C239.066 63.8983 239.131 64.1267 239.168 64.36C239.208 64.59 239.228 64.8083 239.228 65.015V68H238.328ZM234.478 68V62.6H235.278V64.045H235.378V68H234.478ZM243.543 68C243.223 68.0633 242.906 68.0883 242.593 68.075C242.283 68.065 242.006 68.0033 241.763 67.89C241.519 67.7733 241.334 67.5933 241.208 67.35C241.101 67.1367 241.043 66.9217 241.033 66.705C241.026 66.485 241.023 66.2367 241.023 65.96V61.1H241.913V65.92C241.913 66.14 241.914 66.3283 241.918 66.485C241.924 66.6417 241.959 66.7767 242.023 66.89C242.143 67.1033 242.333 67.2283 242.593 67.265C242.856 67.3017 243.173 67.2917 243.543 67.235V68ZM239.928 63.335V62.6H243.543V63.335H239.928ZM246.754 68.15C246.224 68.15 245.761 68.0333 245.364 67.8C244.971 67.5633 244.664 67.235 244.444 66.815C244.224 66.3917 244.114 65.8983 244.114 65.335C244.114 64.745 244.223 64.235 244.439 63.805C244.656 63.3717 244.958 63.0383 245.344 62.805C245.734 62.5683 246.191 62.45 246.714 62.45C247.258 62.45 247.719 62.575 248.099 62.825C248.483 63.075 248.769 63.4317 248.959 63.895C249.153 64.3583 249.236 64.91 249.209 65.55H248.309V65.23C248.299 64.5667 248.164 64.0717 247.904 63.745C247.644 63.415 247.258 63.25 246.744 63.25C246.194 63.25 245.776 63.4267 245.489 63.78C245.203 64.1333 245.059 64.64 245.059 65.3C245.059 65.9367 245.203 66.43 245.489 66.78C245.776 67.13 246.184 67.305 246.714 67.305C247.071 67.305 247.381 67.2233 247.644 67.06C247.908 66.8967 248.114 66.6617 248.264 66.355L249.119 66.65C248.909 67.1267 248.593 67.4967 248.169 67.76C247.749 68.02 247.278 68.15 246.754 68.15ZM244.759 65.55V64.835H248.749V65.55H244.759Z" fill="black" fill-opacity="0.7"/>
<rect x="234.333" y="25" width="64.6667" height="1" fill="black" fill-opacity="0.3"/>
<rect x="299" y="12" width="27" height="27" rx="13.5" fill="white"/>
<rect x="299.5" y="12.5" width="26" height="26" rx="13" stroke="black" stroke-opacity="0.3"/>
<mask id="mask0_59_19870" style="mask-type:alpha" maskUnits="userSpaceOnUse" x="304" y="17" width="17" height="17">
<rect x="304.5" y="17.5" width="16" height="16" fill="#D9D9D9"/>
</mask>
<g mask="url(#mask0_59_19870)">
<path d="M308.039 31.1667C307.707 31.1667 307.423 31.0487 307.187 30.8127C306.951 30.5767 306.833 30.2929 306.833 29.9615V21.0385C306.833 20.7071 306.951 20.4233 307.187 20.1873C307.423 19.9513 307.707 19.8333 308.039 19.8333H311.005C311.047 19.4632 311.209 19.1485 311.49 18.8892C311.771 18.6297 312.109 18.5 312.503 18.5C312.898 18.5 313.235 18.6297 313.517 18.8892C313.798 19.1485 313.957 19.4632 313.995 19.8333H316.962C317.293 19.8333 317.577 19.9513 317.813 20.1873C318.049 20.4233 318.167 20.7071 318.167 21.0385V29.9615C318.167 30.2929 318.049 30.5767 317.813 30.8127C317.577 31.0487 317.293 31.1667 316.962 31.1667H308.039ZM308.039 30.1667H316.962C317.013 30.1667 317.06 30.1453 317.103 30.1025C317.145 30.0598 317.167 30.0128 317.167 29.9615V21.0385C317.167 20.9872 317.145 20.9402 317.103 20.8975C317.06 20.8547 317.013 20.8333 316.962 20.8333H308.039C307.987 20.8333 307.94 20.8547 307.898 20.8975C307.855 20.9402 307.833 20.9872 307.833 21.0385V29.9615C307.833 30.0128 307.855 30.0598 307.898 30.1025C307.94 30.1453 307.987 30.1667 308.039 30.1667ZM312.5 20.3975C312.644 20.3975 312.764 20.3503 312.858 20.2558C312.953 20.1614 313 20.0419 313 19.8975C313 19.7531 312.953 19.6336 312.858 19.5392C312.764 19.4447 312.644 19.3975 312.5 19.3975C312.356 19.3975 312.236 19.4447 312.142 19.5392C312.047 19.6336 312 19.7531 312 19.8975C312 20.0419 312.047 20.1614 312.142 20.2558C312.236 20.3503 312.356 20.3975 312.5 20.3975Z" fill="black" fill-opacity="0.5"/>
<path d="M314.281 26.4125C313.801 26.8607 313.208 27.4054 312.5 28.0465C311.759 27.372 311.157 26.819 310.694 26.3875C310.231 25.9558 310 25.4631 310 24.9093C310 24.552 310.127 24.246 310.382 23.9913C310.637 23.7366 310.943 23.6093 311.3 23.6093C311.568 23.6093 311.796 23.6672 311.985 23.783C312.174 23.8988 312.345 24.0528 312.5 24.2451C312.655 24.0528 312.826 23.8988 313.015 23.783C313.204 23.6672 313.432 23.6093 313.7 23.6093C314.057 23.6093 314.363 23.7366 314.618 23.9913C314.873 24.246 315 24.552 315 24.9093C315 25.4631 314.76 25.9641 314.281 26.4125Z" fill="black" fill-opacity="0.5"/>
</g>
<path d="M292.517 54.15C291.801 54.15 291.192 53.9917 290.692 53.675C290.192 53.3583 289.811 52.9183 289.547 52.355C289.287 51.7917 289.157 51.14 289.157 50.4C289.157 49.66 289.287 49.0083 289.547 48.445C289.811 47.8817 290.192 47.4417 290.692 47.125C291.192 46.8083 291.801 46.65 292.517 46.65C293.351 46.65 294.036 46.8617 294.572 47.285C295.112 47.7083 295.484 48.2783 295.687 48.995L294.782 49.235C294.636 48.6983 294.374 48.275 293.997 47.965C293.621 47.655 293.127 47.5 292.517 47.5C291.981 47.5 291.534 47.6217 291.177 47.865C290.821 48.1083 290.552 48.4483 290.372 48.885C290.192 49.3183 290.101 49.8233 290.097 50.4C290.094 50.9733 290.182 51.4783 290.362 51.915C290.542 52.3483 290.812 52.6883 291.172 52.935C291.532 53.1783 291.981 53.3 292.517 53.3C293.127 53.3 293.621 53.145 293.997 52.835C294.374 52.5217 294.636 52.0983 294.782 51.565L295.687 51.805C295.484 52.5183 295.112 53.0883 294.572 53.515C294.036 53.9383 293.351 54.15 292.517 54.15ZM299.084 54.15C298.547 54.15 298.084 54.0283 297.694 53.785C297.307 53.5417 297.009 53.205 296.799 52.775C296.589 52.345 296.484 51.8517 296.484 51.295C296.484 50.7283 296.591 50.2317 296.804 49.805C297.017 49.3783 297.319 49.0467 297.709 48.81C298.099 48.57 298.557 48.45 299.084 48.45C299.624 48.45 300.089 48.5717 300.479 48.815C300.869 49.055 301.167 49.39 301.374 49.82C301.584 50.2467 301.689 50.7383 301.689 51.295C301.689 51.8583 301.584 52.355 301.374 52.785C301.164 53.2117 300.864 53.5467 300.474 53.79C300.084 54.03 299.621 54.15 299.084 54.15ZM299.084 53.305C299.644 53.305 300.061 53.1183 300.334 52.745C300.607 52.3717 300.744 51.8883 300.744 51.295C300.744 50.685 300.606 50.2 300.329 49.84C300.052 49.4767 299.637 49.295 299.084 49.295C298.707 49.295 298.397 49.38 298.154 49.55C297.911 49.72 297.729 49.955 297.609 50.255C297.489 50.555 297.429 50.9017 297.429 51.295C297.429 51.9017 297.569 52.3883 297.849 52.755C298.129 53.1217 298.541 53.305 299.084 53.305ZM306.635 54V51.295C306.635 51.0383 306.612 50.7917 306.565 50.555C306.522 50.3183 306.443 50.1067 306.33 49.92C306.22 49.73 306.07 49.58 305.88 49.47C305.693 49.36 305.457 49.305 305.17 49.305C304.947 49.305 304.743 49.3433 304.56 49.42C304.38 49.4933 304.225 49.6067 304.095 49.76C303.965 49.9133 303.863 50.1067 303.79 50.34C303.72 50.57 303.685 50.8417 303.685 51.155L303.1 50.975C303.1 50.4517 303.193 50.0033 303.38 49.63C303.57 49.2533 303.835 48.965 304.175 48.765C304.518 48.5617 304.922 48.46 305.385 48.46C305.735 48.46 306.033 48.515 306.28 48.625C306.527 48.735 306.732 48.8817 306.895 49.065C307.058 49.245 307.187 49.4483 307.28 49.675C307.373 49.8983 307.438 50.1267 307.475 50.36C307.515 50.59 307.535 50.8083 307.535 51.015V54H306.635ZM302.785 54V48.6H303.585V50.045H303.685V54H302.785ZM309.35 54V48.305C309.35 48.165 309.356 48.0233 309.37 47.88C309.383 47.7333 309.413 47.5917 309.46 47.455C309.506 47.315 309.583 47.1867 309.69 47.07C309.813 46.9333 309.948 46.8367 310.095 46.78C310.241 46.72 310.39 46.6833 310.54 46.67C310.693 46.6567 310.838 46.65 310.975 46.65H311.66V47.39H311.025C310.761 47.39 310.565 47.455 310.435 47.585C310.305 47.7117 310.24 47.905 310.24 48.165V54H309.35ZM308.435 49.335V48.6H311.66V49.335H308.435ZM312.71 47.645V46.725H313.6V47.645H312.71ZM312.71 54V48.6H313.6V54H312.71ZM315.104 54V48.6H315.899V49.905L315.769 49.735C315.833 49.5683 315.914 49.415 316.014 49.275C316.118 49.135 316.233 49.02 316.359 48.93C316.499 48.8167 316.658 48.73 316.834 48.67C317.011 48.61 317.191 48.575 317.374 48.565C317.558 48.5517 317.729 48.5633 317.889 48.6V49.435C317.703 49.385 317.498 49.3717 317.274 49.395C317.051 49.4183 316.844 49.5 316.654 49.64C316.481 49.7633 316.346 49.9133 316.249 50.09C316.156 50.2667 316.091 50.4583 316.054 50.665C316.018 50.8683 315.999 51.0767 315.999 51.29V54H315.104ZM325.29 54L325.295 50.545C325.295 50.1417 325.186 49.8267 324.97 49.6C324.756 49.37 324.478 49.255 324.135 49.255C323.935 49.255 323.745 49.3017 323.565 49.395C323.385 49.485 323.238 49.6283 323.125 49.825C323.011 50.0183 322.955 50.2667 322.955 50.57L322.485 50.38C322.478 49.9967 322.556 49.6617 322.72 49.375C322.886 49.085 323.113 48.86 323.4 48.7C323.686 48.54 324.01 48.46 324.37 48.46C324.933 48.46 325.376 48.6317 325.7 48.975C326.023 49.315 326.185 49.7733 326.185 50.35L326.18 54H325.29ZM318.83 54V48.6H319.625V50.045H319.725V54H318.83ZM322.065 54L322.07 50.58C322.07 50.1667 321.963 49.8433 321.75 49.61C321.536 49.3733 321.253 49.255 320.9 49.255C320.55 49.255 320.266 49.375 320.05 49.615C319.833 49.855 319.725 50.1733 319.725 50.57L319.255 50.29C319.255 49.94 319.338 49.6267 319.505 49.35C319.671 49.0733 319.898 48.8567 320.185 48.7C320.471 48.54 320.796 48.46 321.16 48.46C321.523 48.46 321.84 48.5367 322.11 48.69C322.38 48.8433 322.588 49.0633 322.735 49.35C322.881 49.6333 322.955 49.9717 322.955 50.365L322.95 54H322.065ZM329.022 54.15C328.619 54.15 328.28 54.0767 328.007 53.93C327.737 53.78 327.532 53.5833 327.392 53.34C327.255 53.0967 327.187 52.83 327.187 52.54C327.187 52.2567 327.24 52.0117 327.347 51.805C327.457 51.595 327.61 51.4217 327.807 51.285C328.004 51.145 328.239 51.035 328.512 50.955C328.769 50.885 329.055 50.825 329.372 50.775C329.692 50.7217 330.015 50.6733 330.342 50.63C330.669 50.5867 330.974 50.545 331.257 50.505L330.937 50.69C330.947 50.21 330.85 49.855 330.647 49.625C330.447 49.395 330.1 49.28 329.607 49.28C329.28 49.28 328.994 49.355 328.747 49.505C328.504 49.6517 328.332 49.8917 328.232 50.225L327.387 49.97C327.517 49.4967 327.769 49.125 328.142 48.855C328.515 48.585 329.007 48.45 329.617 48.45C330.107 48.45 330.527 48.5383 330.877 48.715C331.23 48.8883 331.484 49.1517 331.637 49.505C331.714 49.6717 331.762 49.8533 331.782 50.05C331.802 50.2433 331.812 50.4467 331.812 50.66V54H331.022V52.705L331.207 52.825C331.004 53.2617 330.719 53.5917 330.352 53.815C329.989 54.0383 329.545 54.15 329.022 54.15ZM329.157 53.405C329.477 53.405 329.754 53.3483 329.987 53.235C330.224 53.1183 330.414 52.9667 330.557 52.78C330.7 52.59 330.794 52.3833 330.837 52.16C330.887 51.9933 330.914 51.8083 330.917 51.605C330.924 51.3983 330.927 51.24 330.927 51.13L331.237 51.265C330.947 51.305 330.662 51.3433 330.382 51.38C330.102 51.4167 329.837 51.4567 329.587 51.5C329.337 51.54 329.112 51.5883 328.912 51.645C328.765 51.6917 328.627 51.7517 328.497 51.825C328.37 51.8983 328.267 51.9933 328.187 52.11C328.11 52.2233 328.072 52.365 328.072 52.535C328.072 52.6817 328.109 52.8217 328.182 52.955C328.259 53.0883 328.375 53.1967 328.532 53.28C328.692 53.3633 328.9 53.405 329.157 53.405ZM333.112 54V48.6H333.907V49.905L333.777 49.735C333.84 49.5683 333.922 49.415 334.022 49.275C334.125 49.135 334.24 49.02 334.367 48.93C334.507 48.8167 334.665 48.73 334.842 48.67C335.019 48.61 335.199 48.575 335.382 48.565C335.565 48.5517 335.737 48.5633 335.897 48.6V49.435C335.71 49.385 335.505 49.3717 335.282 49.395C335.059 49.4183 334.852 49.5 334.662 49.64C334.489 49.7633 334.354 49.9133 334.257 50.09C334.164 50.2667 334.099 50.4583 334.062 50.665C334.025 50.8683 334.007 51.0767 334.007 51.29V54H333.112ZM306.632 68.15C306.086 68.15 305.621 68.0283 305.237 67.785C304.857 67.5383 304.567 67.2 304.367 66.77C304.167 66.34 304.064 65.85 304.057 65.3C304.064 64.7367 304.169 64.2417 304.372 63.815C304.579 63.385 304.874 63.05 305.257 62.81C305.641 62.57 306.102 62.45 306.642 62.45C307.212 62.45 307.702 62.59 308.112 62.87C308.526 63.15 308.802 63.5333 308.942 64.02L308.062 64.285C307.949 63.9717 307.764 63.7283 307.507 63.555C307.254 63.3817 306.962 63.295 306.632 63.295C306.262 63.295 305.957 63.3817 305.717 63.555C305.477 63.725 305.299 63.9617 305.182 64.265C305.066 64.565 305.006 64.91 305.002 65.3C305.009 65.9 305.147 66.385 305.417 66.755C305.691 67.1217 306.096 67.305 306.632 67.305C306.986 67.305 307.279 67.225 307.512 67.065C307.746 66.9017 307.922 66.6667 308.042 66.36L308.942 66.595C308.756 67.0983 308.464 67.4833 308.067 67.75C307.671 68.0167 307.192 68.15 306.632 68.15ZM309.916 61.645V60.725H310.806V61.645H309.916ZM309.916 68V62.6H310.806V68H309.916ZM315.321 68C315.001 68.0633 314.685 68.0883 314.371 68.075C314.061 68.065 313.785 68.0033 313.541 67.89C313.298 67.7733 313.113 67.5933 312.986 67.35C312.88 67.1367 312.821 66.9217 312.811 66.705C312.805 66.485 312.801 66.2367 312.801 65.96V61.1H313.691V65.92C313.691 66.14 313.693 66.3283 313.696 66.485C313.703 66.6417 313.738 66.7767 313.801 66.89C313.921 67.1033 314.111 67.2283 314.371 67.265C314.635 67.3017 314.951 67.2917 315.321 67.235V68ZM311.706 63.335V62.6H315.321V63.335H311.706ZM317.953 68.15C317.549 68.15 317.211 68.0767 316.938 67.93C316.668 67.78 316.463 67.5833 316.323 67.34C316.186 67.0967 316.118 66.83 316.118 66.54C316.118 66.2567 316.171 66.0117 316.278 65.805C316.388 65.595 316.541 65.4217 316.738 65.285C316.934 65.145 317.169 65.035 317.443 64.955C317.699 64.885 317.986 64.825 318.303 64.775C318.623 64.7217 318.946 64.6733 319.273 64.63C319.599 64.5867 319.904 64.545 320.188 64.505L319.868 64.69C319.878 64.21 319.781 63.855 319.578 63.625C319.378 63.395 319.031 63.28 318.538 63.28C318.211 63.28 317.924 63.355 317.678 63.505C317.434 63.6517 317.263 63.8917 317.163 64.225L316.318 63.97C316.448 63.4967 316.699 63.125 317.073 62.855C317.446 62.585 317.938 62.45 318.548 62.45C319.038 62.45 319.458 62.5383 319.808 62.715C320.161 62.8883 320.414 63.1517 320.568 63.505C320.644 63.6717 320.693 63.8533 320.713 64.05C320.733 64.2433 320.743 64.4467 320.743 64.66V68H319.953V66.705L320.138 66.825C319.934 67.2617 319.649 67.5917 319.283 67.815C318.919 68.0383 318.476 68.15 317.953 68.15ZM318.088 67.405C318.408 67.405 318.684 67.3483 318.918 67.235C319.154 67.1183 319.344 66.9667 319.488 66.78C319.631 66.59 319.724 66.3833 319.768 66.16C319.818 65.9933 319.844 65.8083 319.848 65.605C319.854 65.3983 319.858 65.24 319.858 65.13L320.168 65.265C319.878 65.305 319.593 65.3433 319.313 65.38C319.033 65.4167 318.768 65.4567 318.518 65.5C318.268 65.54 318.043 65.5883 317.843 65.645C317.696 65.6917 317.558 65.7517 317.428 65.825C317.301 65.8983 317.198 65.9933 317.118 66.11C317.041 66.2233 317.003 66.365 317.003 66.535C317.003 66.6817 317.039 66.8217 317.113 66.955C317.189 67.0883 317.306 67.1967 317.463 67.28C317.623 67.3633 317.831 67.405 318.088 67.405Z" fill="black" fill-opacity="0.7"/>
<defs>
<clipPath id="clip0_59_19870">
<rect width="16" height="16" fill="white" transform="translate(212.833 17.5)"/>
</clipPath>
</defs>
</svg>
