<svg width="24" height="24" viewBox="0 0 24 24" fill="none" xmlns="http://www.w3.org/2000/svg">
<g clip-path="url(#clip0_787_357)">
<path d="M6.37142 20.7547L6.7605 20.9493C8.347 21.8929 10.1608 22.3862 12.0067 22.3759C17.6893 22.363 22.3583 17.6829 22.3583 12.0003C22.3583 9.25398 21.2676 6.61662 19.328 4.67247C17.391 2.70824 14.7446 1.60129 11.9866 1.60129C6.32991 1.60129 1.67578 6.25607 1.67578 11.9121C1.67578 11.9568 1.67578 12.0009 1.67643 12.0457C1.69347 13.9687 2.23132 15.8511 3.23279 17.4929L3.49216 17.882L2.45461 21.708L6.37142 20.7547Z" fill="#27D045"/>
<path d="M20.4822 3.50523C18.2742 1.2524 15.2451 -0.01146 12.0909 0.00341039H12.0708C5.57505 0.00343071 0.229646 5.34885 0.229646 11.8446C0.229646 11.8751 0.230296 11.905 0.230296 11.9354C0.254763 14.0007 0.789407 16.0279 1.78665 17.8366L0.100586 23.9971L6.38435 22.3759C8.12024 23.3289 10.0718 23.8202 12.052 23.8026C18.5718 23.7669 23.9166 18.391 23.9127 11.8706C23.9282 8.73778 22.6929 5.72496 20.4822 3.50523ZM12.0909 21.7923C10.3356 21.8014 8.61118 21.3305 7.10414 20.4305L6.71505 20.2359L2.97334 21.2087L3.94605 17.5123L3.68667 17.1232C2.72316 15.5675 2.2127 13.7738 2.21267 11.9439C2.21267 6.54724 6.65346 2.10644 12.0501 2.10644C17.4467 2.10644 21.8875 6.54724 21.8875 11.9439C21.8875 15.3419 20.1269 18.5078 17.2398 20.3008C15.7129 21.2789 13.9367 21.7967 12.1234 21.7923M17.8235 14.5942L17.1102 14.27C17.1102 14.27 16.0726 13.816 15.4241 13.4918C15.3593 13.4918 15.2944 13.4269 15.2296 13.4269C15.0697 13.4309 14.9135 13.4755 14.7756 13.5566C14.6375 13.6377 14.7108 13.6215 13.8029 14.659C13.7413 14.7803 13.6149 14.8562 13.4787 14.8536H13.4138C13.3163 14.8373 13.226 14.7921 13.1544 14.7239L12.8302 14.5942C12.1345 14.2996 11.4975 13.8823 10.9496 13.3621C10.8199 13.2324 10.6254 13.1027 10.4957 12.973C10.0156 12.5131 9.60103 11.9894 9.26358 11.4166L9.19871 11.287C9.14238 11.2077 9.09864 11.1202 9.06902 11.0276C9.05207 10.9152 9.07501 10.8005 9.13387 10.7033C9.19288 10.606 9.39327 10.3791 9.5878 10.1845C9.78236 9.99 9.78236 9.86032 9.91205 9.73061C9.9787 9.63804 10.0248 9.53227 10.0471 9.42041C10.0695 9.30855 10.0677 9.1932 10.0417 9.08212C9.73952 8.24302 9.39319 7.42047 9.00418 6.61792C8.89991 6.45575 8.73746 6.33972 8.55025 6.29367H7.83691C7.70722 6.29367 7.57753 6.35852 7.44782 6.35852L7.38298 6.42336C7.25329 6.48821 7.1236 6.61792 6.99389 6.68276C6.8642 6.74761 6.79936 6.94216 6.66967 7.07185C6.21633 7.64473 5.96549 8.35162 5.95634 9.08212C5.96352 9.59597 6.07377 10.1032 6.28056 10.5736L6.34542 10.7682C6.9277 12.0131 7.74204 13.1355 8.7448 14.0754L9.00418 14.3348C9.19294 14.4911 9.36662 14.6648 9.52296 14.8536C10.8666 16.0228 12.4625 16.8658 14.1855 17.3178C14.3801 17.3826 14.6395 17.3826 14.834 17.4475H15.4825C15.8214 17.4308 16.1529 17.3424 16.4552 17.1881C16.614 17.1161 16.7658 17.0292 16.9091 16.9287L17.0388 16.799C17.1685 16.6693 17.2982 16.6045 17.4279 16.4748C17.5546 16.3619 17.6639 16.2307 17.7521 16.0857C17.8766 15.7952 17.9642 15.4904 18.0115 15.1778V14.7239C17.9533 14.6715 17.8877 14.6278 17.817 14.5942" fill="white"/>
</g>
<defs>
<clipPath id="clip0_787_357">
<rect width="24" height="24" fill="white"/>
</clipPath>
</defs>
</svg>
